<svg width="34" height="36" viewBox="0 0 34 36" fill="none" xmlns="http://www.w3.org/2000/svg">
<path d="M17.9304 33.879C25.1163 33.879 30.9417 28.054 30.9417 20.8685C30.9417 13.683 25.1163 7.85803 17.9304 7.85803C10.7445 7.85803 4.91919 13.683 4.91919 20.8685C4.91919 28.054 10.7445 33.879 17.9304 33.879Z" fill="#2D2727"/>
<path d="M17.9304 35.0228C10.1277 35.0228 3.77527 28.6708 3.77527 20.8685C3.77527 13.0663 10.1277 6.72446 17.9304 6.72446C25.733 6.72446 32.0854 13.0765 32.0854 20.8787C32.0854 28.681 25.733 35.033 17.9304 35.033V35.0228ZM17.9304 9.00181C11.3839 9.00181 6.05275 14.3224 6.05275 20.8685C6.05275 27.4146 11.3839 32.7353 17.9304 32.7353C24.4768 32.7353 29.7977 27.4146 29.7977 20.8685C29.7977 14.3224 24.4768 9.00181 17.9304 9.00181Z" fill="#2D2727"/>
<path d="M21.9792 29.0192C28.6181 26.2694 31.7707 18.6587 29.0208 12.0201C26.2709 5.38158 18.6597 2.22912 12.0208 4.97889C5.3819 7.72866 2.22926 15.3394 4.97918 21.9779C7.72911 28.6165 15.3403 31.7689 21.9792 29.0192Z" fill="#9FC9E4"/>
<path d="M17.0009 31.1421C9.19825 31.1421 2.84583 24.8003 2.84583 16.998C2.84583 9.19582 9.19825 2.84375 17.0009 2.84375C24.8036 2.84375 31.156 9.19582 31.156 16.998C31.156 24.8003 24.8036 31.1523 17.0009 31.1523V31.1421ZM17.0009 5.1211C10.4544 5.1211 5.1233 10.4519 5.1233 16.998C5.1233 23.5441 10.4544 28.875 17.0009 28.875C23.5474 28.875 28.8683 23.5441 28.8683 16.998C28.8683 10.4519 23.5474 5.1211 17.0009 5.1211Z" fill="#2D2727"/>
<path d="M25.4369 13.965C25.0693 13.965 24.7016 13.7812 24.4871 13.4544C22.8327 10.9626 20.9024 9.49198 18.7271 9.10391C15.51 8.52181 12.8138 10.4622 12.7832 10.4826C12.2725 10.8502 11.5576 10.7379 11.1899 10.2375C10.8223 9.72687 10.9346 9.012 11.4351 8.64436C11.578 8.54224 14.9585 6.1117 19.1254 6.86741C21.9339 7.36782 24.3748 9.16519 26.3765 12.1982C26.7238 12.7191 26.5808 13.4339 26.0599 13.7812C25.8659 13.9139 25.6514 13.9752 25.4369 13.9752V13.965Z" fill="#F4EFEF"/>
</svg>
