<svg width="70" height="77" viewBox="0 0 70 77" fill="none" xmlns="http://www.w3.org/2000/svg">
<path d="M36.095 74.2631C53.2899 74.2631 67.2291 60.3247 67.2291 43.1308C67.2291 25.9368 53.2899 11.9984 36.095 11.9984C18.9001 11.9984 4.96094 25.9368 4.96094 43.1308C4.96094 60.3247 18.9001 74.2631 36.095 74.2631Z" fill="#2D2727"/>
<path d="M36.095 77C17.4243 77 2.22388 61.8004 2.22388 43.1308C2.22388 24.4611 17.4243 9.26151 36.095 9.26151C54.7657 9.26151 69.9662 24.4611 69.9662 43.1308C69.9662 61.8004 54.7657 77 36.095 77ZM36.095 14.7353C20.4302 14.7353 7.67356 27.4913 7.67356 43.1552C7.67356 58.8191 20.4302 71.5506 36.095 71.5506C51.7598 71.5506 64.492 58.8191 64.492 43.1552C64.492 27.4913 51.7598 14.7353 36.095 14.7353Z" fill="#2D2727"/>
<path d="M33.8711 65.0016C51.066 65.0016 65.0052 51.0632 65.0052 33.8692C65.0052 16.6753 51.066 2.73691 33.8711 2.73691C16.6763 2.73691 2.73706 16.6753 2.73706 33.8692C2.73706 51.0632 16.6763 65.0016 33.8711 65.0016Z" fill="#9FC9E4"/>
<path d="M33.8711 67.7141C15.2005 67.7141 0 52.5144 0 33.8448C0 15.1752 15.2005 0 33.8711 0C52.5418 0 67.7423 15.1996 67.7423 33.8692C67.7423 52.5389 52.5418 67.7385 33.8711 67.7385V67.7141ZM33.8711 5.44938C18.2064 5.44938 5.47413 18.1809 5.47413 33.8448C5.47413 49.5087 18.2064 62.2402 33.8711 62.2402C49.5359 62.2402 62.2926 49.5087 62.2926 33.8448C62.2926 18.1809 49.5359 5.44938 33.8711 5.44938Z" fill="#2D2727"/>
<path d="M53.7882 26.6115C52.9084 26.6115 52.0286 26.1717 51.5154 25.3897C47.5565 19.4272 42.9377 15.9083 37.7324 14.9797C30.0344 13.5868 23.5827 18.2298 23.5094 18.2786C22.2875 19.1828 20.5768 18.914 19.6971 17.6922C18.8173 16.4703 19.0861 14.7598 20.2836 13.88C20.6257 13.6357 28.7147 7.81974 38.6855 9.62805C45.4059 10.8254 51.2466 15.1263 56.0365 22.384C56.8674 23.6303 56.5252 25.3408 55.2789 26.1717C54.8146 26.4894 54.3014 26.636 53.7882 26.636V26.6115Z" fill="#F4EFEF"/>
</svg>
