<svg width="50" height="52" viewBox="0 0 50 52" fill="none" xmlns="http://www.w3.org/2000/svg">
<path d="M26.3684 49.8221C36.9359 49.8221 45.5026 41.2559 45.5026 30.689C45.5026 20.1221 36.9359 11.5559 26.3684 11.5559C15.8009 11.5559 7.23425 20.1221 7.23425 30.689C7.23425 41.2559 15.8009 49.8221 26.3684 49.8221Z" fill="#2D2727"/>
<path d="M26.3683 51.5041C14.8938 51.5041 5.552 42.1629 5.552 30.689C5.552 19.2151 14.8938 9.88889 26.3683 9.88889C37.8428 9.88889 47.1846 19.2302 47.1846 30.704C47.1846 42.1779 37.8428 51.5192 26.3683 51.5192V51.5041ZM26.3683 13.2379C16.7411 13.2379 8.90123 21.0624 8.90123 30.689C8.90123 40.3156 16.7411 48.1401 26.3683 48.1401C35.9955 48.1401 43.8203 40.3156 43.8203 30.689C43.8203 21.0624 35.9955 13.2379 26.3683 13.2379Z" fill="#2D2727"/>
<path d="M32.3223 42.6753C42.0854 38.6315 46.7217 27.4392 42.6777 17.6767C38.6337 7.91412 27.4408 3.27813 17.6777 7.32192C7.91456 11.3657 3.27832 22.558 7.32233 32.3205C11.3663 42.0831 22.5592 46.7191 32.3223 42.6753Z" fill="#FF739C"/>
<path d="M25.0015 45.7972C13.527 45.7972 4.18518 36.471 4.18518 24.9971C4.18518 13.5233 13.527 4.182 25.0015 4.182C36.476 4.182 45.8178 13.5233 45.8178 24.9971C45.8178 36.471 36.476 45.8123 25.0015 45.8123V45.7972ZM25.0015 7.53104C15.3743 7.53104 7.53441 15.3705 7.53441 24.9971C7.53441 34.6238 15.3743 42.4632 25.0015 42.4632C34.6286 42.4632 42.4535 34.6238 42.4535 24.9971C42.4535 15.3705 34.6286 7.53104 25.0015 7.53104Z" fill="#2D2727"/>
<path d="M37.4072 20.5367C36.8665 20.5367 36.3258 20.2664 36.0104 19.7858C33.5774 16.1214 30.7388 13.9588 27.5397 13.3881C22.8088 12.5321 18.8438 15.3855 18.7987 15.4156C18.0477 15.9562 16.9964 15.791 16.4557 15.0551C15.9151 14.3042 16.0803 13.253 16.8162 12.7123C17.0265 12.5621 21.9977 8.9878 28.1255 10.0991C32.2557 10.835 35.8452 13.4782 38.7889 17.9386C39.2996 18.7045 39.0893 19.7558 38.3234 20.2664C38.038 20.4617 37.7226 20.5518 37.4072 20.5518V20.5367Z" fill="#F4EFEF"/>
</svg>
