<svg width="198" height="140" viewBox="0 0 198 140" fill="none" xmlns="http://www.w3.org/2000/svg">
<path d="M100.807 66.1475C114.785 66.1475 126.116 54.7741 126.116 40.7443C126.116 26.7144 114.785 15.341 100.807 15.341C86.829 15.341 75.4977 26.7144 75.4977 40.7443C75.4977 54.7741 86.829 66.1475 100.807 66.1475Z" fill="#2D2727"/>
<path d="M100.807 68.372C85.6257 68.372 73.2814 55.9818 73.2814 40.7442C73.2814 25.5067 85.6257 13.1165 100.807 13.1165C115.988 13.1165 128.332 25.5067 128.332 40.7442C128.332 55.9818 115.988 68.372 100.807 68.372ZM100.807 17.5655C88.0635 17.5655 77.7138 27.9536 77.7138 40.7442C77.7138 53.5349 88.0635 63.9231 100.807 63.9231C113.55 63.9231 123.9 53.5349 123.9 40.7442C123.9 27.9536 113.55 17.5655 100.807 17.5655Z" fill="#2D2727"/>
<path d="M108.685 56.6605C121.599 51.2915 127.732 36.4314 122.383 23.4695C117.034 10.5077 102.229 4.35242 89.3147 9.72141C76.4008 15.0904 70.2683 29.9505 75.6174 42.9124C80.9665 55.8742 95.7716 62.0295 108.685 56.6605Z" fill="#9FC9E4"/>
<path d="M98.9895 60.8088C83.8084 60.8088 71.4641 48.4186 71.4641 33.1811C71.4641 17.9436 83.8084 5.55341 98.9895 5.55341C114.171 5.55341 126.515 17.9436 126.515 33.1811C126.515 48.4186 114.171 60.8088 98.9895 60.8088ZM98.9895 10.0023C86.2463 10.0023 75.8965 20.3905 75.8965 33.1811C75.8965 45.9717 86.2463 56.3599 98.9895 56.3599C111.733 56.3599 122.082 45.9717 122.082 33.1811C122.082 20.3905 111.733 10.0023 98.9895 10.0023Z" fill="#2D2727"/>
<path d="M115.412 27.2641C114.703 27.2641 113.993 26.9081 113.572 26.2631C110.359 21.3915 106.591 18.5442 102.38 17.7656C96.1085 16.6312 90.8783 20.4127 90.8339 20.4572C89.8366 21.1913 88.4626 20.9689 87.7312 19.9679C86.9999 18.9669 87.2215 17.5877 88.2188 16.8536C88.4847 16.6534 95.0669 11.9153 103.178 13.3835C108.63 14.3622 113.373 17.8769 117.296 23.7939C117.96 24.8172 117.694 26.1963 116.675 26.8859C116.298 27.1306 115.877 27.2641 115.456 27.2641H115.412Z" fill="#F4EFEF"/>
<path d="M100.807 137.651C114.785 137.651 126.116 126.278 126.116 112.248C126.116 98.2181 114.785 86.8447 100.807 86.8447C86.829 86.8447 75.4977 98.2181 75.4977 112.248C75.4977 126.278 86.829 137.651 100.807 137.651Z" fill="#2D2727"/>
<path d="M100.807 139.876C85.6257 139.876 73.2814 127.485 73.2814 112.248C73.2814 97.0104 85.6257 84.6202 100.807 84.6202C115.988 84.6202 128.332 97.0104 128.332 112.248C128.332 127.485 115.988 139.876 100.807 139.876ZM100.807 89.0691C88.0635 89.0691 77.7138 99.4573 77.7138 112.248C77.7138 125.039 88.0635 135.427 100.807 135.427C113.55 135.427 123.9 125.039 123.9 112.248C123.9 99.4573 113.55 89.0691 100.807 89.0691Z" fill="#2D2727"/>
<path d="M108.685 128.164C121.599 122.795 127.732 107.935 122.383 94.9732C117.034 82.0113 102.229 75.8561 89.3147 81.2251C76.4008 86.5941 70.2683 101.454 75.6174 114.416C80.9665 127.378 95.7716 133.533 108.685 128.164Z" fill="#FF739C"/>
<path d="M98.9895 132.312C83.8084 132.312 71.4641 119.922 71.4641 104.685C71.4641 89.4473 83.8084 77.0571 98.9895 77.0571C114.171 77.0571 126.515 89.4473 126.515 104.685C126.515 119.922 114.171 132.312 98.9895 132.312ZM98.9895 81.506C86.2463 81.506 75.8965 91.8942 75.8965 104.685C75.8965 117.475 86.2463 127.864 98.9895 127.864C111.733 127.864 122.082 117.475 122.082 104.685C122.082 91.8942 111.733 81.506 98.9895 81.506Z" fill="#2D2727"/>
<path d="M115.412 98.7677C114.703 98.7677 113.993 98.4118 113.572 97.7667C110.359 92.8952 106.591 90.0479 102.38 89.2693C96.1085 88.1348 90.8783 91.9164 90.8339 91.9609C89.8366 92.695 88.4626 92.4725 87.7312 91.4715C86.9999 90.4705 87.2215 89.0914 88.2188 88.3573C88.4847 88.1571 95.0669 83.419 103.178 84.8871C108.63 85.8659 113.373 89.3805 117.296 95.2976C117.96 96.3208 117.694 97.7 116.675 98.3896C116.298 98.6343 115.877 98.7677 115.456 98.7677H115.412Z" fill="#F4EFEF"/>
<path d="M34.8749 66.1475C48.8527 66.1475 60.184 54.7741 60.184 40.7443C60.184 26.7144 48.8527 15.341 34.8749 15.341C20.897 15.341 9.56567 26.7144 9.56567 40.7443C9.56567 54.7741 20.897 66.1475 34.8749 66.1475Z" fill="#2D2727"/>
<path d="M34.8749 68.372C19.6938 68.372 7.34949 55.9818 7.34949 40.7442C7.34949 25.5067 19.6938 13.1165 34.8749 13.1165C50.056 13.1165 62.4003 25.5067 62.4003 40.7442C62.4003 55.9818 50.056 68.372 34.8749 68.372ZM34.8749 17.5655C22.1317 17.5655 11.7819 27.9536 11.7819 40.7442C11.7819 53.5349 22.1317 63.9231 34.8749 63.9231C47.6181 63.9231 57.9679 53.5349 57.9679 40.7442C57.9679 27.9536 47.6181 17.5655 34.8749 17.5655Z" fill="#2D2727"/>
<path d="M42.7535 56.6605C55.6673 51.2915 61.7998 36.4314 56.4507 23.4695C51.1016 10.5077 36.2965 4.35242 23.3826 9.72141C10.4688 15.0904 4.33631 29.9505 9.68541 42.9124C15.0345 55.8742 29.8396 62.0295 42.7535 56.6605Z" fill="#FF739C"/>
<path d="M33.0576 60.8088C17.8766 60.8088 5.53223 48.4186 5.53223 33.1811C5.53223 17.9436 17.8766 5.55341 33.0576 5.55341C48.2387 5.55341 60.583 17.9436 60.583 33.1811C60.583 48.4186 48.2387 60.8088 33.0576 60.8088ZM33.0576 10.0023C20.3144 10.0023 9.96466 20.3905 9.96466 33.1811C9.96466 45.9717 20.3144 56.3599 33.0576 56.3599C45.8009 56.3599 56.1506 45.9717 56.1506 33.1811C56.1506 20.3905 45.8009 10.0023 33.0576 10.0023Z" fill="#2D2727"/>
<path d="M49.4798 27.2641C48.7706 27.2641 48.0614 26.9081 47.6403 26.2631C44.4268 21.3915 40.6592 18.5442 36.4484 17.7656C30.1765 16.6312 24.9462 20.4127 24.9019 20.4572C23.9046 21.1913 22.5306 20.9689 21.7992 19.9679C21.0679 18.9669 21.2895 17.5877 22.2868 16.8536C22.5527 16.6534 29.1349 11.9153 37.2463 13.3835C42.6981 14.3622 47.4408 17.8769 51.3636 23.7939C52.0284 24.8172 51.7625 26.1963 50.743 26.8859C50.3663 27.1306 49.9452 27.2641 49.5241 27.2641H49.4798Z" fill="#F4EFEF"/>
<path d="M34.8749 137.651C48.8527 137.651 60.184 126.278 60.184 112.248C60.184 98.2181 48.8527 86.8447 34.8749 86.8447C20.897 86.8447 9.56567 98.2181 9.56567 112.248C9.56567 126.278 20.897 137.651 34.8749 137.651Z" fill="#2D2727"/>
<path d="M34.8749 139.876C19.6938 139.876 7.34949 127.485 7.34949 112.248C7.34949 97.0104 19.6938 84.6202 34.8749 84.6202C50.056 84.6202 62.4003 97.0104 62.4003 112.248C62.4003 127.485 50.056 139.876 34.8749 139.876ZM34.8749 89.0691C22.1317 89.0691 11.7819 99.4573 11.7819 112.248C11.7819 125.039 22.1317 135.427 34.8749 135.427C47.6181 135.427 57.9679 125.039 57.9679 112.248C57.9679 99.4573 47.6181 89.0691 34.8749 89.0691Z" fill="#2D2727"/>
<path d="M42.7535 128.164C55.6673 122.795 61.7998 107.935 56.4507 94.9732C51.1016 82.0113 36.2965 75.8561 23.3826 81.2251C10.4688 86.5941 4.33631 101.454 9.68541 114.416C15.0345 127.378 29.8396 133.533 42.7535 128.164Z" fill="#9FC9E4"/>
<path d="M33.0576 132.312C17.8766 132.312 5.53223 119.922 5.53223 104.685C5.53223 89.4473 17.8766 77.0571 33.0576 77.0571C48.2387 77.0571 60.583 89.4473 60.583 104.685C60.583 119.922 48.2387 132.312 33.0576 132.312ZM33.0576 81.506C20.3144 81.506 9.96466 91.8942 9.96466 104.685C9.96466 117.475 20.3144 127.864 33.0576 127.864C45.8009 127.864 56.1506 117.475 56.1506 104.685C56.1506 91.8942 45.8009 81.506 33.0576 81.506Z" fill="#2D2727"/>
<path d="M49.4798 98.7677C48.7706 98.7677 48.0614 98.4118 47.6403 97.7667C44.4268 92.8952 40.6592 90.0479 36.4484 89.2693C30.1765 88.1348 24.9462 91.9164 24.9019 91.9609C23.9046 92.695 22.5306 92.4725 21.7992 91.4715C21.0679 90.4705 21.2895 89.0914 22.2868 88.3573C22.5527 88.1571 29.1349 83.419 37.2463 84.8871C42.6981 85.8659 47.4408 89.3805 51.3636 95.2976C52.0284 96.3208 51.7625 97.7 50.743 98.3896C50.3663 98.6343 49.9452 98.7677 49.5241 98.7677H49.4798Z" fill="#F4EFEF"/>
<path d="M166.739 66.1475C180.717 66.1475 192.048 54.7741 192.048 40.7443C192.048 26.7144 180.717 15.341 166.739 15.341C152.761 15.341 141.43 26.7144 141.43 40.7443C141.43 54.7741 152.761 66.1475 166.739 66.1475Z" fill="#2D2727"/>
<path d="M166.739 68.372C151.558 68.372 139.213 55.9818 139.213 40.7442C139.213 25.5067 151.558 13.1165 166.739 13.1165C181.92 13.1165 194.264 25.5067 194.264 40.7442C194.264 55.9818 181.92 68.372 166.739 68.372ZM166.739 17.5655C153.996 17.5655 143.646 27.9536 143.646 40.7442C143.646 53.5349 153.996 63.9231 166.739 63.9231C179.482 63.9231 189.832 53.5349 189.832 40.7442C189.832 27.9536 179.482 17.5655 166.739 17.5655Z" fill="#2D2727"/>
<path d="M174.617 56.6605C187.531 51.2915 193.664 36.4314 188.315 23.4695C182.965 10.5077 168.16 4.35242 155.247 9.72141C142.333 15.0904 136.2 29.9505 141.549 42.9124C146.898 55.8742 161.703 62.0295 174.617 56.6605Z" fill="#FF739C"/>
<path d="M164.921 60.8088C149.74 60.8088 137.396 48.4186 137.396 33.1811C137.396 17.9436 149.74 5.55341 164.921 5.55341C180.102 5.55341 192.447 17.9436 192.447 33.1811C192.447 48.4186 180.102 60.8088 164.921 60.8088ZM164.921 10.0023C152.178 10.0023 141.828 20.3905 141.828 33.1811C141.828 45.9717 152.178 56.3599 164.921 56.3599C177.665 56.3599 188.014 45.9717 188.014 33.1811C188.014 20.3905 177.665 10.0023 164.921 10.0023Z" fill="#2D2727"/>
<path d="M181.344 27.2641C180.634 27.2641 179.925 26.9081 179.504 26.2631C176.291 21.3915 172.523 18.5442 168.312 17.7656C162.04 16.6312 156.81 20.4127 156.766 20.4572C155.768 21.1913 154.394 20.9689 153.663 19.9679C152.932 18.9669 153.153 17.5877 154.151 16.8536C154.417 16.6534 160.999 11.9153 169.11 13.3835C174.562 14.3622 179.305 17.8769 183.227 23.7939C183.892 24.8172 183.626 26.1963 182.607 26.8859C182.23 27.1306 181.809 27.2641 181.388 27.2641H181.344Z" fill="#F4EFEF"/>
<path d="M166.739 137.651C180.717 137.651 192.048 126.278 192.048 112.248C192.048 98.2181 180.717 86.8447 166.739 86.8447C152.761 86.8447 141.43 98.2181 141.43 112.248C141.43 126.278 152.761 137.651 166.739 137.651Z" fill="#2D2727"/>
<path d="M166.739 139.876C151.558 139.876 139.213 127.485 139.213 112.248C139.213 97.0104 151.558 84.6202 166.739 84.6202C181.92 84.6202 194.264 97.0104 194.264 112.248C194.264 127.485 181.92 139.876 166.739 139.876ZM166.739 89.0691C153.996 89.0691 143.646 99.4573 143.646 112.248C143.646 125.039 153.996 135.427 166.739 135.427C179.482 135.427 189.832 125.039 189.832 112.248C189.832 99.4573 179.482 89.0691 166.739 89.0691Z" fill="#2D2727"/>
<path d="M174.617 128.164C187.531 122.795 193.664 107.935 188.315 94.9732C182.965 82.0113 168.16 75.8561 155.247 81.2251C142.333 86.5941 136.2 101.454 141.549 114.416C146.898 127.378 161.703 133.533 174.617 128.164Z" fill="#9FC9E4"/>
<path d="M164.921 132.312C149.74 132.312 137.396 119.922 137.396 104.685C137.396 89.4473 149.74 77.0571 164.921 77.0571C180.102 77.0571 192.447 89.4473 192.447 104.685C192.447 119.922 180.102 132.312 164.921 132.312ZM164.921 81.506C152.178 81.506 141.828 91.8942 141.828 104.685C141.828 117.475 152.178 127.864 164.921 127.864C177.665 127.864 188.014 117.475 188.014 104.685C188.014 91.8942 177.665 81.506 164.921 81.506Z" fill="#2D2727"/>
<path d="M181.344 98.7677C180.634 98.7677 179.925 98.4118 179.504 97.7667C176.291 92.8952 172.523 90.0479 168.312 89.2693C162.04 88.1348 156.81 91.9164 156.766 91.9609C155.768 92.695 154.394 92.4725 153.663 91.4715C152.932 90.4705 153.153 89.0914 154.151 88.3573C154.417 88.1571 160.999 83.419 169.11 84.8871C174.562 85.8659 179.305 89.3805 183.227 95.2976C183.892 96.3208 183.626 97.7 182.607 98.3896C182.23 98.6343 181.809 98.7677 181.388 98.7677H181.344Z" fill="#F4EFEF"/>
</svg>
