<svg width="820" height="835" viewBox="0 0 820 835" fill="none" xmlns="http://www.w3.org/2000/svg">
<g clip-path="url(#clip0_1_12368)">
<path d="M782.966 64.9252H499.415C480.3 64.9252 464.823 77.1098 464.823 92.1212V738.903C464.823 753.915 480.3 766.099 499.415 766.099H782.942C802.057 766.099 817.534 753.915 817.534 738.903V92.0968C817.534 77.0854 802.057 64.9008 782.942 64.9008L782.966 64.9252Z" fill="#950933"/>
<path d="M782.966 768H499.44C479.006 768 462.406 754.938 462.406 738.903V92.0968C462.406 76.0375 479.031 63 499.44 63H782.966C803.375 63 820 76.0619 820 92.0968V738.879C820 754.938 803.375 767.976 782.966 767.976V768ZM499.44 66.826C481.716 66.826 467.288 78.1576 467.288 92.0968V738.879C467.288 752.818 481.716 764.15 499.44 764.15H782.966C800.69 764.15 815.118 752.818 815.118 738.879V92.0968C815.118 78.1576 800.69 66.826 782.966 66.826H499.44Z" fill="#2D2727"/>
<path d="M768.783 64.9252H513.599C494.484 64.9252 479.006 77.1098 479.006 92.1212V738.903C479.006 753.915 494.484 766.099 513.599 766.099H392H768.783C787.898 766.099 803.375 753.915 803.375 738.903V92.0968C803.375 77.0854 787.898 64.9008 768.783 64.9008V64.9252Z" fill="#FAFAFA"/>
<path d="M768.783 768H513.599C493.19 768 476.565 754.938 476.565 738.903V92.0968C476.565 76.0375 493.19 63 513.599 63H768.783C789.192 63 805.817 76.0619 805.817 92.0968V738.879C805.817 754.938 789.192 767.976 768.783 767.976V768ZM513.599 66.826C495.875 66.826 481.448 78.1576 481.448 92.0968V738.879C481.448 752.818 495.875 764.15 513.599 764.15H768.783C786.506 764.15 800.934 752.818 800.934 738.879V92.0968C800.934 78.1576 786.506 66.826 768.783 66.826H513.599Z" fill="#2D2727"/>
</g>
<g clip-path="url(#clip1_1_12368)">
<path d="M540.497 2.27254H34.5032C16.6943 2.27254 2.27441 16.6805 2.27441 34.4745V800.503C2.27441 818.297 16.6943 832.705 34.5032 832.705H540.497C558.306 832.705 572.725 818.297 572.725 800.503V34.4745C572.725 16.6805 558.306 2.27254 540.497 2.27254Z" fill="#950933"/>
<path d="M540.497 835H34.5032C15.4662 835 0 819.524 0 800.525V34.4745C0 15.476 15.4889 0 34.5032 0H540.497C559.511 0 575 15.476 575 34.4745V800.525C575 819.524 559.511 835 540.497 835ZM34.5032 4.54508C17.9908 4.54508 4.54887 17.9758 4.54887 34.4745V800.525C4.54887 817.024 17.9908 830.455 34.5032 830.455H540.497C557.009 830.455 570.451 817.024 570.451 800.525V34.4745C570.451 17.9758 557.009 4.54508 540.497 4.54508H34.5032Z" fill="#2D2727"/>
<path d="M527.282 2.27254H47.7175C29.9087 2.27254 15.4888 16.6805 15.4888 34.4745V800.503C15.4888 818.297 29.9087 832.705 47.7175 832.705H527.305C545.114 832.705 559.534 818.297 559.534 800.503V34.4745C559.534 16.6805 545.114 2.27254 527.305 2.27254H527.282Z" fill="#D70342"/>
<path d="M527.282 835H47.7175C28.7033 835 13.2144 819.524 13.2144 800.525V34.4745C13.2144 15.476 28.6805 0 47.7175 0H527.305C546.319 0 561.808 15.476 561.808 34.4745V800.525C561.808 819.524 546.319 835 527.305 835H527.282ZM47.7175 4.54508C31.2051 4.54508 17.7632 17.9758 17.7632 34.4745V800.525C17.7632 817.024 31.2051 830.455 47.7175 830.455H527.305C543.817 830.455 557.259 817.024 557.259 800.525V34.4745C557.259 17.9758 543.817 4.54508 527.305 4.54508H47.7175Z" fill="#2D2727"/>
<path d="M455.046 835H119.476V832.727C119.476 817.388 131.963 804.889 147.338 804.889H427.184C442.537 804.889 455.046 817.365 455.046 832.727V835ZM124.139 830.455H450.384C449.246 818.683 439.284 809.434 427.184 809.434H147.338C135.261 809.434 125.299 818.66 124.139 830.455Z" fill="#2D2727"/>
<rect x="49" y="67" width="475" height="359" fill="#9FC9E4"/>
<rect x="99" y="102" width="378" height="289" fill="#F4EFEF"/>
</g>
<g clip-path="url(#clip2_1_12368)">
<path d="M507.435 33H68.5658C52.2506 33 39.0005 19.717 39.0005 3.41509V1H537V3.41509C537 19.717 523.75 33 507.435 33ZM43.9481 5.83019C45.1549 18.3404 55.726 28.1698 68.5658 28.1698H507.435C520.251 28.1698 530.822 18.3645 532.053 5.83019H43.9481Z" fill="#2D2727"/>
<path d="M384.13 33H191.847C175.556 33 162.282 19.7411 162.282 3.41509V1H413.695V3.41509C413.695 19.717 400.445 33 384.13 33ZM167.229 5.83019C168.436 18.3404 179.031 28.1698 191.847 28.1698H384.13C396.946 28.1698 407.517 18.3645 408.748 5.83019H167.229Z" fill="#2D2727"/>
<path d="M268.813 16.9879H307.188" stroke="#2D2727" stroke-width="3" stroke-linecap="round" stroke-linejoin="round"/>
</g>
<path d="M232.034 793.448C230.192 793.448 228.669 791.966 228.623 790.096L227.759 752.489C227.714 750.596 229.214 749.046 231.101 749C232.989 749 234.557 750.459 234.58 752.352L235.444 789.959C235.49 791.852 233.989 793.402 232.102 793.448H232.011H232.034Z" fill="#2D2727"/>
<path d="M257.635 793.448C255.794 793.448 254.27 791.966 254.225 790.096L253.361 752.489C253.315 750.596 254.816 749.046 256.703 749C258.613 749 260.159 750.459 260.182 752.352L261.046 789.959C261.091 791.852 259.591 793.402 257.704 793.448H257.613H257.635Z" fill="#2D2727"/>
<path d="M281.941 793.448C280.054 793.448 278.531 791.92 278.531 790.05L278.349 754.222C278.349 752.33 279.849 750.802 281.736 750.779C283.624 750.779 285.147 752.307 285.147 754.177L285.329 790.004C285.329 791.897 283.828 793.425 281.941 793.448Z" fill="#2D2727"/>
<path d="M305.224 793.448C303.382 793.448 301.858 791.966 301.813 790.096L300.949 752.489C300.904 750.596 302.404 749.046 304.291 749C306.224 749 307.747 750.459 307.77 752.352L308.634 789.959C308.68 791.852 307.179 793.402 305.292 793.448H305.201H305.224Z" fill="#2D2727"/>
<path d="M333.804 793.448C331.962 793.448 330.439 791.966 330.393 790.096L329.529 752.489C329.484 750.596 330.984 749.046 332.872 749C334.804 749 336.328 750.459 336.35 752.352L337.214 789.959C337.26 791.852 335.759 793.402 333.872 793.448H333.781H333.804Z" fill="#2D2727"/>
<path d="M48.1608 779.035C45.8644 779.035 44 777.165 44 774.862C44 772.558 45.8644 770.688 48.1608 770.688C50.4573 770.688 52.3217 772.558 52.3217 774.862C52.3217 777.165 50.4573 779.035 48.1608 779.035ZM48.1608 772.969C47.1149 772.969 46.2737 773.812 46.2737 774.862C46.2737 775.911 47.1149 776.754 48.1608 776.754C49.2067 776.754 50.048 775.911 50.048 774.862C50.048 773.812 49.2067 772.969 48.1608 772.969Z" fill="#2D2727"/>
<path d="M82.6982 779.035C80.4018 779.035 78.5374 777.165 78.5374 774.862C78.5374 772.558 80.4018 770.688 82.6982 770.688C84.9946 770.688 86.859 772.558 86.859 774.862C86.859 777.165 84.9946 779.035 82.6982 779.035ZM82.6982 772.969C81.6523 772.969 80.811 773.812 80.811 774.862C80.811 775.911 81.6523 776.754 82.6982 776.754C83.7441 776.754 84.5854 775.911 84.5854 774.862C84.5854 773.812 83.7441 772.969 82.6982 772.969Z" fill="#2D2727"/>
<path d="M98.1364 779.035C95.84 779.035 93.9756 777.165 93.9756 774.862C93.9756 772.558 95.84 770.688 98.1364 770.688C100.433 770.688 102.297 772.558 102.297 774.862C102.297 777.165 100.433 779.035 98.1364 779.035ZM98.1364 772.969C97.0905 772.969 96.2493 773.812 96.2493 774.862C96.2493 775.911 97.0905 776.754 98.1364 776.754C99.1823 776.754 100.024 775.911 100.024 774.862C100.024 773.812 99.1823 772.969 98.1364 772.969Z" fill="#2D2727"/>
<path d="M65.1228 779.035C62.8263 779.035 60.9619 777.165 60.9619 774.862C60.9619 772.558 62.8263 770.688 65.1228 770.688C67.4192 770.688 69.2836 772.558 69.2836 774.862C69.2836 777.165 67.4192 779.035 65.1228 779.035ZM65.1228 772.969C64.0769 772.969 63.2356 773.812 63.2356 774.862C63.2356 775.911 64.0769 776.754 65.1228 776.754C66.1687 776.754 67.0099 775.911 67.0099 774.862C67.0099 773.812 66.1687 772.969 65.1228 772.969Z" fill="#2D2727"/>
<path d="M48.1608 792.992C45.8644 792.992 44 791.122 44 788.819C44 786.515 45.8644 784.645 48.1608 784.645C50.4573 784.645 52.3217 786.515 52.3217 788.819C52.3217 791.122 50.4573 792.992 48.1608 792.992ZM48.1608 786.926C47.1149 786.926 46.2737 787.77 46.2737 788.819C46.2737 789.868 47.1149 790.711 48.1608 790.711C49.2067 790.711 50.048 789.868 50.048 788.819C50.048 787.77 49.2067 786.926 48.1608 786.926Z" fill="#2D2727"/>
<path d="M82.6982 792.992C80.4018 792.992 78.5374 791.122 78.5374 788.819C78.5374 786.515 80.4018 784.645 82.6982 784.645C84.9946 784.645 86.859 786.515 86.859 788.819C86.859 791.122 84.9946 792.992 82.6982 792.992ZM82.6982 786.926C81.6523 786.926 80.811 787.77 80.811 788.819C80.811 789.868 81.6523 790.711 82.6982 790.711C83.7441 790.711 84.5854 789.868 84.5854 788.819C84.5854 787.77 83.7441 786.926 82.6982 786.926Z" fill="#2D2727"/>
<path d="M98.1364 792.992C95.84 792.992 93.9756 791.122 93.9756 788.819C93.9756 786.515 95.84 784.645 98.1364 784.645C100.433 784.645 102.297 786.515 102.297 788.819C102.297 791.122 100.433 792.992 98.1364 792.992ZM98.1364 786.926C97.0905 786.926 96.2493 787.77 96.2493 788.819C96.2493 789.868 97.0905 790.711 98.1364 790.711C99.1823 790.711 100.024 789.868 100.024 788.819C100.024 787.77 99.1823 786.926 98.1364 786.926Z" fill="#2D2727"/>
<path d="M65.1228 792.992C62.8263 792.992 60.9619 791.122 60.9619 788.819C60.9619 786.515 62.8263 784.645 65.1228 784.645C67.4192 784.645 69.2836 786.515 69.2836 788.819C69.2836 791.122 67.4192 792.992 65.1228 792.992ZM65.1228 786.926C64.0769 786.926 63.2356 787.77 63.2356 788.819C63.2356 789.868 64.0769 790.711 65.1228 790.711C66.1687 790.711 67.0099 789.868 67.0099 788.819C67.0099 787.77 66.1687 786.926 65.1228 786.926Z" fill="#2D2727"/>
<path d="M48.1608 809.344C45.8644 809.344 44 807.474 44 805.17C44 802.867 45.8644 800.997 48.1608 800.997C50.4573 800.997 52.3217 802.867 52.3217 805.17C52.3217 807.474 50.4573 809.344 48.1608 809.344ZM48.1608 803.277C47.1149 803.277 46.2737 804.121 46.2737 805.17C46.2737 806.219 47.1149 807.063 48.1608 807.063C49.2067 807.063 50.048 806.219 50.048 805.17C50.048 804.121 49.2067 803.277 48.1608 803.277Z" fill="#2D2727"/>
<path d="M82.6982 809.344C80.4018 809.344 78.5374 807.474 78.5374 805.17C78.5374 802.867 80.4018 800.997 82.6982 800.997C84.9946 800.997 86.859 802.867 86.859 805.17C86.859 807.474 84.9946 809.344 82.6982 809.344ZM82.6982 803.277C81.6523 803.277 80.811 804.121 80.811 805.17C80.811 806.219 81.6523 807.063 82.6982 807.063C83.7441 807.063 84.5854 806.219 84.5854 805.17C84.5854 804.121 83.7441 803.277 82.6982 803.277Z" fill="#2D2727"/>
<path d="M98.1364 809.344C95.84 809.344 93.9756 807.474 93.9756 805.17C93.9756 802.867 95.84 800.997 98.1364 800.997C100.433 800.997 102.297 802.867 102.297 805.17C102.297 807.474 100.433 809.344 98.1364 809.344ZM98.1364 803.277C97.0905 803.277 96.2493 804.121 96.2493 805.17C96.2493 806.219 97.0905 807.063 98.1364 807.063C99.1823 807.063 100.024 806.219 100.024 805.17C100.024 804.121 99.1823 803.277 98.1364 803.277Z" fill="#2D2727"/>
<path d="M65.1228 809.344C62.8263 809.344 60.9619 807.474 60.9619 805.17C60.9619 802.867 62.8263 800.997 65.1228 800.997C67.4192 800.997 69.2836 802.867 69.2836 805.17C69.2836 807.474 67.4192 809.344 65.1228 809.344ZM65.1228 803.277C64.0769 803.277 63.2356 804.121 63.2356 805.17C63.2356 806.219 64.0769 807.063 65.1228 807.063C66.1687 807.063 67.0099 806.219 67.0099 805.17C67.0099 804.121 66.1687 803.277 65.1228 803.277Z" fill="#2D2727"/>
<path d="M475.863 779.035C473.567 779.035 471.703 777.165 471.703 774.862C471.703 772.558 473.567 770.688 475.863 770.688C478.16 770.688 480.024 772.558 480.024 774.862C480.024 777.165 478.16 779.035 475.863 779.035ZM475.863 772.969C474.818 772.969 473.976 773.812 473.976 774.862C473.976 775.911 474.818 776.754 475.863 776.754C476.909 776.754 477.751 775.911 477.751 774.862C477.751 773.812 476.909 772.969 475.863 772.969Z" fill="#2D2727"/>
<path d="M510.401 779.035C508.104 779.035 506.24 777.165 506.24 774.862C506.24 772.558 508.104 770.688 510.401 770.688C512.697 770.688 514.562 772.558 514.562 774.862C514.562 777.165 512.697 779.035 510.401 779.035ZM510.401 772.969C509.355 772.969 508.514 773.812 508.514 774.862C508.514 775.911 509.355 776.754 510.401 776.754C511.447 776.754 512.288 775.911 512.288 774.862C512.288 773.812 511.447 772.969 510.401 772.969Z" fill="#2D2727"/>
<path d="M525.839 779.035C523.543 779.035 521.678 777.165 521.678 774.862C521.678 772.558 523.543 770.688 525.839 770.688C528.135 770.688 530 772.558 530 774.862C530 777.165 528.135 779.035 525.839 779.035ZM525.839 772.969C524.793 772.969 523.952 773.812 523.952 774.862C523.952 775.911 524.793 776.754 525.839 776.754C526.885 776.754 527.726 775.911 527.726 774.862C527.726 773.812 526.885 772.969 525.839 772.969Z" fill="#2D2727"/>
<path d="M492.825 779.035C490.529 779.035 488.664 777.165 488.664 774.862C488.664 772.558 490.529 770.688 492.825 770.688C495.122 770.688 496.986 772.558 496.986 774.862C496.986 777.165 495.122 779.035 492.825 779.035ZM492.825 772.969C491.779 772.969 490.938 773.812 490.938 774.862C490.938 775.911 491.779 776.754 492.825 776.754C493.871 776.754 494.712 775.911 494.712 774.862C494.712 773.812 493.871 772.969 492.825 772.969Z" fill="#2D2727"/>
<path d="M475.863 792.992C473.567 792.992 471.703 791.122 471.703 788.819C471.703 786.515 473.567 784.645 475.863 784.645C478.16 784.645 480.024 786.515 480.024 788.819C480.024 791.122 478.16 792.992 475.863 792.992ZM475.863 786.926C474.818 786.926 473.976 787.77 473.976 788.819C473.976 789.868 474.818 790.711 475.863 790.711C476.909 790.711 477.751 789.868 477.751 788.819C477.751 787.77 476.909 786.926 475.863 786.926Z" fill="#2D2727"/>
<path d="M510.401 792.992C508.104 792.992 506.24 791.122 506.24 788.819C506.24 786.515 508.104 784.645 510.401 784.645C512.697 784.645 514.562 786.515 514.562 788.819C514.562 791.122 512.697 792.992 510.401 792.992ZM510.401 786.926C509.355 786.926 508.514 787.77 508.514 788.819C508.514 789.868 509.355 790.711 510.401 790.711C511.447 790.711 512.288 789.868 512.288 788.819C512.288 787.77 511.447 786.926 510.401 786.926Z" fill="#2D2727"/>
<path d="M525.839 792.992C523.543 792.992 521.678 791.122 521.678 788.819C521.678 786.515 523.543 784.645 525.839 784.645C528.135 784.645 530 786.515 530 788.819C530 791.122 528.135 792.992 525.839 792.992ZM525.839 786.926C524.793 786.926 523.952 787.77 523.952 788.819C523.952 789.868 524.793 790.711 525.839 790.711C526.885 790.711 527.726 789.868 527.726 788.819C527.726 787.77 526.885 786.926 525.839 786.926Z" fill="#2D2727"/>
<path d="M492.825 792.992C490.529 792.992 488.664 791.122 488.664 788.819C488.664 786.515 490.529 784.645 492.825 784.645C495.122 784.645 496.986 786.515 496.986 788.819C496.986 791.122 495.122 792.992 492.825 792.992ZM492.825 786.926C491.779 786.926 490.938 787.77 490.938 788.819C490.938 789.868 491.779 790.711 492.825 790.711C493.871 790.711 494.712 789.868 494.712 788.819C494.712 787.77 493.871 786.926 492.825 786.926Z" fill="#2D2727"/>
<path d="M475.863 809.344C473.567 809.344 471.703 807.474 471.703 805.17C471.703 802.867 473.567 800.997 475.863 800.997C478.16 800.997 480.024 802.867 480.024 805.17C480.024 807.474 478.16 809.344 475.863 809.344ZM475.863 803.277C474.818 803.277 473.976 804.121 473.976 805.17C473.976 806.219 474.818 807.063 475.863 807.063C476.909 807.063 477.751 806.219 477.751 805.17C477.751 804.121 476.909 803.277 475.863 803.277Z" fill="#2D2727"/>
<path d="M510.401 809.344C508.104 809.344 506.24 807.474 506.24 805.17C506.24 802.867 508.104 800.997 510.401 800.997C512.697 800.997 514.562 802.867 514.562 805.17C514.562 807.474 512.697 809.344 510.401 809.344ZM510.401 803.277C509.355 803.277 508.514 804.121 508.514 805.17C508.514 806.219 509.355 807.063 510.401 807.063C511.447 807.063 512.288 806.219 512.288 805.17C512.288 804.121 511.447 803.277 510.401 803.277Z" fill="#2D2727"/>
<path d="M525.839 809.344C523.543 809.344 521.678 807.474 521.678 805.17C521.678 802.867 523.543 800.997 525.839 800.997C528.135 800.997 530 802.867 530 805.17C530 807.474 528.135 809.344 525.839 809.344ZM525.839 803.277C524.793 803.277 523.952 804.121 523.952 805.17C523.952 806.219 524.793 807.063 525.839 807.063C526.885 807.063 527.726 806.219 527.726 805.17C527.726 804.121 526.885 803.277 525.839 803.277Z" fill="#2D2727"/>
<path d="M492.825 809.344C490.529 809.344 488.664 807.474 488.664 805.17C488.664 802.867 490.529 800.997 492.825 800.997C495.122 800.997 496.986 802.867 496.986 805.17C496.986 807.474 495.122 809.344 492.825 809.344ZM492.825 803.277C491.779 803.277 490.938 804.121 490.938 805.17C490.938 806.219 491.779 807.063 492.825 807.063C493.871 807.063 494.712 806.219 494.712 805.17C494.712 804.121 493.871 803.277 492.825 803.277Z" fill="#2D2727"/>
<g clip-path="url(#clip3_1_12368)">
<path d="M521.34 419.531V422.319C520.95 422.816 520.322 423.075 519.694 423.075C519.26 423.075 518.827 422.946 518.459 422.686L491.908 403.927C490.933 403.235 490.717 401.874 491.388 400.901C492.081 399.928 493.445 399.712 494.42 400.404L520.95 419.163C521.101 419.271 521.231 419.401 521.34 419.531Z" fill="#2D2727"/>
<path d="M51.4237 424.223L48.7308 423.502C48.3515 422.996 48.2636 422.323 48.4261 421.716C48.5382 421.297 48.7756 420.913 49.1214 420.624L74.1136 399.833C75.0339 399.07 76.4052 399.214 77.1708 400.114C77.9309 401.035 77.7865 402.409 76.8662 403.171L51.8795 423.942C51.7359 424.06 51.577 424.152 51.4237 424.223Z" fill="#2D2727"/>
<path d="M522.834 62H46.1657C44.9746 62 44 62.9725 44 64.1612V424.546C44 425.735 44.9746 426.708 46.1657 426.708H124.824C125.928 440.28 137.385 451 151.267 451H417.733C431.615 451 443.072 440.28 444.176 426.708H522.834C524.025 426.708 525 425.735 525 424.546V64.1612C525 62.9725 524.025 62 522.834 62ZM417.733 446.677H151.267C139.767 446.677 130.259 437.903 129.177 426.708H439.823C438.719 437.903 429.233 446.677 417.733 446.677ZM520.799 419.359C520.799 419.359 520.734 419.468 520.669 419.511V422.385H48.3314V418.668C48.2448 418.322 48.2448 417.955 48.3314 417.609V68.9591C48.2448 68.6349 48.2448 68.2675 48.3314 67.9217V68.9591C48.4397 69.4562 48.7212 69.9101 49.176 70.2343L75.7057 88.9937C76.0955 89.2747 76.5287 89.4044 76.9618 89.4044C77.6332 89.4044 78.3045 89.0802 78.7377 88.4967C79.4307 87.5241 79.1925 86.1625 78.2179 85.4709L51.6882 66.7115C51.2984 66.4521 50.8652 66.3224 50.4321 66.3224H519.023C518.589 66.3224 518.156 66.4521 517.788 66.7115L491.237 85.4709C490.262 86.1625 490.046 87.5241 490.717 88.4967C491.15 89.0802 491.822 89.4044 492.493 89.4044C492.926 89.4044 493.359 89.2747 493.749 88.9937L520.279 70.2343C520.43 70.1262 520.56 69.9965 520.669 69.8668V67.1005C520.669 67.1005 520.777 67.1869 520.799 67.2301C521.383 68.0514 521.297 69.132 520.669 69.8668V416.723C521.297 417.458 521.383 418.538 520.799 419.359Z" fill="#2D2727"/>
<path d="M48.3313 67.9217V68.9591C48.245 68.6349 48.245 68.2675 48.3313 67.9217Z" fill="#2D2727"/>
<path d="M520.669 69.8669V67.1005C520.669 67.1005 520.777 67.1869 520.799 67.2302C521.383 68.0514 521.297 69.132 520.669 69.8669Z" fill="#2D2727"/>
<rect x="100" y="103" width="375" height="289" stroke="#2B3332" stroke-width="4"/>
</g>
<defs>
<clipPath id="clip0_1_12368">
<rect width="428" height="705" fill="white" transform="translate(392 63)"/>
</clipPath>
<clipPath id="clip1_1_12368">
<rect width="575" height="835" fill="white"/>
</clipPath>
<clipPath id="clip2_1_12368">
<rect width="498" height="32" fill="white" transform="translate(39.0005 1)"/>
</clipPath>
<clipPath id="clip3_1_12368">
<rect width="481" height="389" fill="white" transform="translate(44 62)"/>
</clipPath>
</defs>
</svg>
