<svg width="500" height="510" viewBox="0 0 500 510" fill="none" xmlns="http://www.w3.org/2000/svg">
<g clip-path="url(#clip0_77_6066)">
<path d="M477.418 39.5885H304.521C292.866 39.5885 283.428 47.0181 283.428 56.1714V450.551C283.428 459.704 292.866 467.134 304.521 467.134H477.404C489.059 467.134 498.497 459.704 498.497 450.551V56.1566C498.497 47.0033 489.059 39.5737 477.404 39.5737L477.418 39.5885Z" fill="#950933"/>
<path d="M477.418 468.293H304.536C292.077 468.293 281.955 460.328 281.955 450.551V56.1566C281.955 46.3643 292.092 38.4146 304.536 38.4146H477.418C489.863 38.4146 500 46.3792 500 56.1566V450.536C500 460.328 489.863 468.278 477.418 468.278V468.293ZM304.536 40.7475C293.729 40.7475 284.932 47.6571 284.932 56.1566V450.536C284.932 459.035 293.729 465.945 304.536 465.945H477.418C488.225 465.945 497.023 459.035 497.023 450.536V56.1566C497.023 47.6571 488.225 40.7475 477.418 40.7475H304.536Z" fill="#2D2727"/>
<path d="M468.77 39.5885H313.17C301.514 39.5885 292.077 47.0181 292.077 56.1714V450.551C292.077 459.704 301.514 467.134 313.17 467.134H239.024H468.77C480.425 467.134 489.863 459.704 489.863 450.551V56.1566C489.863 47.0033 480.425 39.5737 468.77 39.5737V39.5885Z" fill="#FAFAFA"/>
<path d="M468.77 468.293H313.17C300.726 468.293 290.588 460.328 290.588 450.551V56.1566C290.588 46.3643 300.726 38.4146 313.17 38.4146H468.77C481.214 38.4146 491.351 46.3792 491.351 56.1566V450.536C491.351 460.328 481.214 468.278 468.77 468.278V468.293ZM313.17 40.7475C302.363 40.7475 293.566 47.6571 293.566 56.1566V450.536C293.566 459.035 302.363 465.945 313.17 465.945H468.77C479.577 465.945 488.374 459.035 488.374 450.536V56.1566C488.374 47.6571 479.577 40.7475 468.77 40.7475H313.17Z" fill="#2D2727"/>
</g>
<g clip-path="url(#clip1_77_6066)">
<path d="M329.571 1.3857H21.0385C10.1795 1.3857 1.38684 10.171 1.38684 21.021V488.111C1.38684 498.961 10.1795 507.747 21.0385 507.747H329.571C340.43 507.747 349.223 498.961 349.223 488.111V21.021C349.223 10.171 340.43 1.3857 329.571 1.3857Z" fill="#950933"/>
<path d="M329.571 509.146H21.0385C9.43059 509.146 0 499.71 0 488.125V21.021C0 9.43659 9.44445 0 21.0385 0H329.571C341.165 0 350.61 9.43659 350.61 21.021V488.125C350.61 499.71 341.165 509.146 329.571 509.146ZM21.0385 2.77139C10.97 2.77139 2.7737 10.9609 2.7737 21.021V488.125C2.7737 498.186 10.97 506.375 21.0385 506.375H329.571C339.64 506.375 347.836 498.186 347.836 488.125V21.021C347.836 10.9609 339.64 2.77139 329.571 2.77139H21.0385Z" fill="#2D2727"/>
<path d="M321.514 1.3857H29.0961C18.2371 1.3857 9.44446 10.171 9.44446 21.021V488.111C9.44446 498.961 18.2371 507.747 29.0961 507.747H321.527C332.387 507.747 341.179 498.961 341.179 488.111V21.021C341.179 10.171 332.387 1.3857 321.527 1.3857H321.514Z" fill="#D70342"/>
<path d="M321.514 509.146H29.0961C17.5021 509.146 8.05762 499.71 8.05762 488.125V21.021C8.05762 9.43659 17.4882 0 29.0961 0H321.527C333.122 0 342.566 9.43659 342.566 21.021V488.125C342.566 499.71 333.122 509.146 321.527 509.146H321.514ZM29.0961 2.77139C19.0276 2.77139 10.8313 10.9609 10.8313 21.021V488.125C10.8313 498.186 19.0276 506.375 29.0961 506.375H321.527C331.596 506.375 339.792 498.186 339.792 488.125V21.021C339.792 10.9609 331.596 2.77139 321.527 2.77139H29.0961Z" fill="#2D2727"/>
<path d="M277.467 509.146H72.8513V507.761C72.8513 498.407 80.4651 490.786 89.8402 490.786H260.478C269.84 490.786 277.467 498.393 277.467 507.761V509.146ZM75.6944 506.375H274.624C273.931 499.197 267.856 493.557 260.478 493.557H89.8402C82.4761 493.557 76.4017 499.183 75.6944 506.375Z" fill="#2D2727"/>
<rect x="29.8781" y="40.8537" width="289.634" height="218.902" fill="#9FC9E4"/>
<rect x="60.3658" y="62.1951" width="230.488" height="176.22" fill="#F4EFEF"/>
</g>
<g clip-path="url(#clip2_77_6066)">
<path d="M309.411 20.122H41.8081C31.8598 20.122 23.7805 12.0226 23.7805 2.08238V0.609756H327.439V2.08238C327.439 12.0226 319.36 20.122 309.411 20.122ZM26.7974 3.55499C27.5332 11.1832 33.979 17.1767 41.8081 17.1767H309.411C317.226 17.1767 323.672 11.1979 324.422 3.55499H26.7974Z" fill="#2D2727"/>
<path d="M234.225 20.122H116.98C107.046 20.122 98.952 12.0373 98.952 2.08238V0.609756H252.253V2.08238C252.253 12.0226 244.174 20.122 234.225 20.122ZM101.969 3.55499C102.705 11.1832 109.165 17.1767 116.98 17.1767H234.225C242.04 17.1767 248.486 11.1979 249.236 3.55499H101.969Z" fill="#2D2727"/>
<path d="M163.91 10.3585H187.309" stroke="#2D2727" stroke-width="3" stroke-linecap="round" stroke-linejoin="round"/>
</g>
<g clip-path="url(#clip3_77_6066)">
<path d="M141.484 483.81C140.361 483.81 139.432 482.906 139.404 481.766L138.877 458.835C138.85 457.681 139.765 456.735 140.915 456.707C142.066 456.707 143.023 457.597 143.037 458.751L143.563 481.682C143.591 482.836 142.676 483.782 141.525 483.81H141.47H141.484Z" fill="#2D2727"/>
<path d="M157.095 483.81C155.972 483.81 155.043 482.906 155.015 481.766L154.488 458.835C154.461 457.681 155.376 456.735 156.526 456.707C157.691 456.707 158.634 457.597 158.647 458.751L159.174 481.682C159.202 482.836 158.287 483.782 157.136 483.81H157.081H157.095Z" fill="#2D2727"/>
<path d="M171.915 483.81C170.765 483.81 169.836 482.878 169.836 481.738L169.725 459.892C169.725 458.738 170.64 457.806 171.79 457.792C172.941 457.792 173.87 458.724 173.87 459.864L173.981 481.71C173.981 482.864 173.066 483.796 171.915 483.81Z" fill="#2D2727"/>
<path d="M186.112 483.81C184.989 483.81 184.06 482.906 184.032 481.766L183.505 458.835C183.478 457.681 184.393 456.735 185.543 456.707C186.722 456.707 187.651 457.597 187.665 458.751L188.192 481.682C188.219 482.836 187.304 483.782 186.154 483.81H186.098H186.112Z" fill="#2D2727"/>
<path d="M203.539 483.81C202.416 483.81 201.487 482.906 201.459 481.766L200.932 458.835C200.905 457.681 201.82 456.735 202.97 456.707C204.149 456.707 205.078 457.597 205.092 458.751L205.619 481.682C205.646 482.836 204.731 483.782 203.581 483.81H203.525H203.539Z" fill="#2D2727"/>
<path d="M29.3663 475.021C27.9661 475.021 26.8292 473.881 26.8292 472.477C26.8292 471.072 27.9661 469.932 29.3663 469.932C30.7666 469.932 31.9034 471.072 31.9034 472.477C31.9034 473.881 30.7666 475.021 29.3663 475.021ZM29.3663 471.322C28.7286 471.322 28.2156 471.837 28.2156 472.477C28.2156 473.116 28.7286 473.631 29.3663 473.631C30.0041 473.631 30.517 473.116 30.517 472.477C30.517 471.837 30.0041 471.322 29.3663 471.322Z" fill="#2D2727"/>
<path d="M50.4256 475.021C49.0254 475.021 47.8885 473.881 47.8885 472.477C47.8885 471.072 49.0254 469.932 50.4256 469.932C51.8259 469.932 52.9627 471.072 52.9627 472.477C52.9627 473.881 51.8259 475.021 50.4256 475.021ZM50.4256 471.322C49.7879 471.322 49.2749 471.837 49.2749 472.477C49.2749 473.116 49.7879 473.631 50.4256 473.631C51.0634 473.631 51.5764 473.116 51.5764 472.477C51.5764 471.837 51.0634 471.322 50.4256 471.322Z" fill="#2D2727"/>
<path d="M59.8392 475.021C58.439 475.021 57.3021 473.881 57.3021 472.477C57.3021 471.072 58.439 469.932 59.8392 469.932C61.2395 469.932 62.3763 471.072 62.3763 472.477C62.3763 473.881 61.2395 475.021 59.8392 475.021ZM59.8392 471.322C59.2015 471.322 58.6885 471.837 58.6885 472.477C58.6885 473.116 59.2015 473.631 59.8392 473.631C60.477 473.631 60.9899 473.116 60.9899 472.477C60.9899 471.837 60.477 471.322 59.8392 471.322Z" fill="#2D2727"/>
<path d="M39.7089 475.021C38.3086 475.021 37.1718 473.881 37.1718 472.477C37.1718 471.072 38.3086 469.932 39.7089 469.932C41.1091 469.932 42.246 471.072 42.246 472.477C42.246 473.881 41.1091 475.021 39.7089 475.021ZM39.7089 471.322C39.0711 471.322 38.5581 471.837 38.5581 472.477C38.5581 473.116 39.0711 473.631 39.7089 473.631C40.3466 473.631 40.8596 473.116 40.8596 472.477C40.8596 471.837 40.3466 471.322 39.7089 471.322Z" fill="#2D2727"/>
<path d="M29.3663 483.532C27.9661 483.532 26.8292 482.391 26.8292 480.987C26.8292 479.582 27.9661 478.442 29.3663 478.442C30.7666 478.442 31.9034 479.582 31.9034 480.987C31.9034 482.391 30.7666 483.532 29.3663 483.532ZM29.3663 479.833C28.7286 479.833 28.2156 480.347 28.2156 480.987C28.2156 481.627 28.7286 482.141 29.3663 482.141C30.0041 482.141 30.517 481.627 30.517 480.987C30.517 480.347 30.0041 479.833 29.3663 479.833Z" fill="#2D2727"/>
<path d="M50.4256 483.532C49.0254 483.532 47.8885 482.391 47.8885 480.987C47.8885 479.582 49.0254 478.442 50.4256 478.442C51.8259 478.442 52.9627 479.582 52.9627 480.987C52.9627 482.391 51.8259 483.532 50.4256 483.532ZM50.4256 479.833C49.7879 479.833 49.2749 480.347 49.2749 480.987C49.2749 481.627 49.7879 482.141 50.4256 482.141C51.0634 482.141 51.5764 481.627 51.5764 480.987C51.5764 480.347 51.0634 479.833 50.4256 479.833Z" fill="#2D2727"/>
<path d="M59.8392 483.532C58.439 483.532 57.3021 482.391 57.3021 480.987C57.3021 479.582 58.439 478.442 59.8392 478.442C61.2395 478.442 62.3763 479.582 62.3763 480.987C62.3763 482.391 61.2395 483.532 59.8392 483.532ZM59.8392 479.833C59.2015 479.833 58.6885 480.347 58.6885 480.987C58.6885 481.627 59.2015 482.141 59.8392 482.141C60.477 482.141 60.9899 481.627 60.9899 480.987C60.9899 480.347 60.477 479.833 59.8392 479.833Z" fill="#2D2727"/>
<path d="M39.7089 483.532C38.3086 483.532 37.1718 482.391 37.1718 480.987C37.1718 479.582 38.3086 478.442 39.7089 478.442C41.1091 478.442 42.246 479.582 42.246 480.987C42.246 482.391 41.1091 483.532 39.7089 483.532ZM39.7089 479.833C39.0711 479.833 38.5581 480.347 38.5581 480.987C38.5581 481.627 39.0711 482.141 39.7089 482.141C40.3466 482.141 40.8596 481.627 40.8596 480.987C40.8596 480.347 40.3466 479.833 39.7089 479.833Z" fill="#2D2727"/>
<path d="M29.3663 493.502C27.9661 493.502 26.8292 492.362 26.8292 490.957C26.8292 489.553 27.9661 488.413 29.3663 488.413C30.7666 488.413 31.9034 489.553 31.9034 490.957C31.9034 492.362 30.7666 493.502 29.3663 493.502ZM29.3663 489.803C28.7286 489.803 28.2156 490.318 28.2156 490.957C28.2156 491.597 28.7286 492.112 29.3663 492.112C30.0041 492.112 30.517 491.597 30.517 490.957C30.517 490.318 30.0041 489.803 29.3663 489.803Z" fill="#2D2727"/>
<path d="M50.4256 493.502C49.0254 493.502 47.8885 492.362 47.8885 490.957C47.8885 489.553 49.0254 488.413 50.4256 488.413C51.8259 488.413 52.9627 489.553 52.9627 490.957C52.9627 492.362 51.8259 493.502 50.4256 493.502ZM50.4256 489.803C49.7879 489.803 49.2749 490.318 49.2749 490.957C49.2749 491.597 49.7879 492.112 50.4256 492.112C51.0634 492.112 51.5764 491.597 51.5764 490.957C51.5764 490.318 51.0634 489.803 50.4256 489.803Z" fill="#2D2727"/>
<path d="M59.8392 493.502C58.439 493.502 57.3021 492.362 57.3021 490.957C57.3021 489.553 58.439 488.413 59.8392 488.413C61.2395 488.413 62.3763 489.553 62.3763 490.957C62.3763 492.362 61.2395 493.502 59.8392 493.502ZM59.8392 489.803C59.2015 489.803 58.6885 490.318 58.6885 490.957C58.6885 491.597 59.2015 492.112 59.8392 492.112C60.477 492.112 60.9899 491.597 60.9899 490.957C60.9899 490.318 60.477 489.803 59.8392 489.803Z" fill="#2D2727"/>
<path d="M39.7089 493.502C38.3086 493.502 37.1718 492.362 37.1718 490.957C37.1718 489.553 38.3086 488.413 39.7089 488.413C41.1091 488.413 42.246 489.553 42.246 490.957C42.246 492.362 41.1091 493.502 39.7089 493.502ZM39.7089 489.803C39.0711 489.803 38.5581 490.318 38.5581 490.957C38.5581 491.597 39.0711 492.112 39.7089 492.112C40.3466 492.112 40.8596 491.597 40.8596 490.957C40.8596 490.318 40.3466 489.803 39.7089 489.803Z" fill="#2D2727"/>
<path d="M290.161 475.021C288.76 475.021 287.624 473.881 287.624 472.477C287.624 471.072 288.76 469.932 290.161 469.932C291.561 469.932 292.698 471.072 292.698 472.477C292.698 473.881 291.561 475.021 290.161 475.021ZM290.161 471.322C289.523 471.322 289.01 471.837 289.01 472.477C289.01 473.116 289.523 473.631 290.161 473.631C290.798 473.631 291.311 473.116 291.311 472.477C291.311 471.837 290.798 471.322 290.161 471.322Z" fill="#2D2727"/>
<path d="M311.22 475.021C309.82 475.021 308.683 473.881 308.683 472.477C308.683 471.072 309.82 469.932 311.22 469.932C312.62 469.932 313.757 471.072 313.757 472.477C313.757 473.881 312.62 475.021 311.22 475.021ZM311.22 471.322C310.582 471.322 310.069 471.837 310.069 472.477C310.069 473.116 310.582 473.631 311.22 473.631C311.858 473.631 312.371 473.116 312.371 472.477C312.371 471.837 311.858 471.322 311.22 471.322Z" fill="#2D2727"/>
<path d="M320.634 475.021C319.233 475.021 318.096 473.881 318.096 472.477C318.096 471.072 319.233 469.932 320.634 469.932C322.034 469.932 323.171 471.072 323.171 472.477C323.171 473.881 322.034 475.021 320.634 475.021ZM320.634 471.322C319.996 471.322 319.483 471.837 319.483 472.477C319.483 473.116 319.996 473.631 320.634 473.631C321.271 473.631 321.784 473.116 321.784 472.477C321.784 471.837 321.271 471.322 320.634 471.322Z" fill="#2D2727"/>
<path d="M300.503 475.021C299.103 475.021 297.966 473.881 297.966 472.477C297.966 471.072 299.103 469.932 300.503 469.932C301.903 469.932 303.04 471.072 303.04 472.477C303.04 473.881 301.903 475.021 300.503 475.021ZM300.503 471.322C299.865 471.322 299.352 471.837 299.352 472.477C299.352 473.116 299.865 473.631 300.503 473.631C301.141 473.631 301.654 473.116 301.654 472.477C301.654 471.837 301.141 471.322 300.503 471.322Z" fill="#2D2727"/>
<path d="M290.161 483.532C288.76 483.532 287.624 482.391 287.624 480.987C287.624 479.582 288.76 478.442 290.161 478.442C291.561 478.442 292.698 479.582 292.698 480.987C292.698 482.391 291.561 483.532 290.161 483.532ZM290.161 479.833C289.523 479.833 289.01 480.347 289.01 480.987C289.01 481.627 289.523 482.141 290.161 482.141C290.798 482.141 291.311 481.627 291.311 480.987C291.311 480.347 290.798 479.833 290.161 479.833Z" fill="#2D2727"/>
<path d="M311.22 483.532C309.82 483.532 308.683 482.391 308.683 480.987C308.683 479.582 309.82 478.442 311.22 478.442C312.62 478.442 313.757 479.582 313.757 480.987C313.757 482.391 312.62 483.532 311.22 483.532ZM311.22 479.833C310.582 479.833 310.069 480.347 310.069 480.987C310.069 481.627 310.582 482.141 311.22 482.141C311.858 482.141 312.371 481.627 312.371 480.987C312.371 480.347 311.858 479.833 311.22 479.833Z" fill="#2D2727"/>
<path d="M320.634 483.532C319.233 483.532 318.096 482.391 318.096 480.987C318.096 479.582 319.233 478.442 320.634 478.442C322.034 478.442 323.171 479.582 323.171 480.987C323.171 482.391 322.034 483.532 320.634 483.532ZM320.634 479.833C319.996 479.833 319.483 480.347 319.483 480.987C319.483 481.627 319.996 482.141 320.634 482.141C321.271 482.141 321.784 481.627 321.784 480.987C321.784 480.347 321.271 479.833 320.634 479.833Z" fill="#2D2727"/>
<path d="M300.503 483.532C299.103 483.532 297.966 482.391 297.966 480.987C297.966 479.582 299.103 478.442 300.503 478.442C301.903 478.442 303.04 479.582 303.04 480.987C303.04 482.391 301.903 483.532 300.503 483.532ZM300.503 479.833C299.865 479.833 299.352 480.347 299.352 480.987C299.352 481.627 299.865 482.141 300.503 482.141C301.141 482.141 301.654 481.627 301.654 480.987C301.654 480.347 301.141 479.833 300.503 479.833Z" fill="#2D2727"/>
<path d="M290.161 493.502C288.76 493.502 287.624 492.362 287.624 490.957C287.624 489.553 288.76 488.413 290.161 488.413C291.561 488.413 292.698 489.553 292.698 490.957C292.698 492.362 291.561 493.502 290.161 493.502ZM290.161 489.803C289.523 489.803 289.01 490.318 289.01 490.957C289.01 491.597 289.523 492.112 290.161 492.112C290.798 492.112 291.311 491.597 291.311 490.957C291.311 490.318 290.798 489.803 290.161 489.803Z" fill="#2D2727"/>
<path d="M311.22 493.502C309.82 493.502 308.683 492.362 308.683 490.957C308.683 489.553 309.82 488.413 311.22 488.413C312.62 488.413 313.757 489.553 313.757 490.957C313.757 492.362 312.62 493.502 311.22 493.502ZM311.22 489.803C310.582 489.803 310.069 490.318 310.069 490.957C310.069 491.597 310.582 492.112 311.22 492.112C311.858 492.112 312.371 491.597 312.371 490.957C312.371 490.318 311.858 489.803 311.22 489.803Z" fill="#2D2727"/>
<path d="M320.634 493.502C319.233 493.502 318.096 492.362 318.096 490.957C318.096 489.553 319.233 488.413 320.634 488.413C322.034 488.413 323.171 489.553 323.171 490.957C323.171 492.362 322.034 493.502 320.634 493.502ZM320.634 489.803C319.996 489.803 319.483 490.318 319.483 490.957C319.483 491.597 319.996 492.112 320.634 492.112C321.271 492.112 321.784 491.597 321.784 490.957C321.784 490.318 321.271 489.803 320.634 489.803Z" fill="#2D2727"/>
<path d="M300.503 493.502C299.103 493.502 297.966 492.362 297.966 490.957C297.966 489.553 299.103 488.413 300.503 488.413C301.903 488.413 303.04 489.553 303.04 490.957C303.04 492.362 301.903 493.502 300.503 493.502ZM300.503 489.803C299.865 489.803 299.352 490.318 299.352 490.957C299.352 491.597 299.865 492.112 300.503 492.112C301.141 492.112 301.654 491.597 301.654 490.957C301.654 490.318 301.141 489.803 300.503 489.803Z" fill="#2D2727"/>
</g>
<g clip-path="url(#clip4_77_6066)">
<path d="M317.89 255.812V257.512C317.652 257.815 317.269 257.973 316.886 257.973C316.622 257.973 316.358 257.894 316.134 257.736L299.944 246.297C299.349 245.875 299.217 245.045 299.627 244.452C300.049 243.859 300.881 243.727 301.476 244.149L317.652 255.587C317.745 255.653 317.824 255.732 317.89 255.812Z" fill="#2D2727"/>
<path d="M31.3558 258.673L29.7138 258.233C29.4825 257.925 29.4289 257.514 29.528 257.144C29.5964 256.889 29.7411 256.654 29.952 256.478L45.1911 243.801C45.7523 243.336 46.5884 243.423 47.0553 243.972C47.5187 244.534 47.4307 245.371 46.8695 245.836L31.6338 258.501C31.5462 258.573 31.4493 258.629 31.3558 258.673Z" fill="#2D2727"/>
<path d="M318.801 37.8049H28.1498C27.4235 37.8049 26.8292 38.3979 26.8292 39.1227V258.87C26.8292 259.595 27.4235 260.188 28.1498 260.188H76.1119C76.7854 268.464 83.7711 275 92.2357 275H254.715C263.18 275 270.166 268.464 270.839 260.188H318.801C319.528 260.188 320.122 259.595 320.122 258.87V39.1227C320.122 38.3979 319.528 37.8049 318.801 37.8049ZM254.715 272.364H92.2357C85.2237 272.364 79.4265 267.014 78.7662 260.188H268.185C267.511 267.014 261.727 272.364 254.715 272.364ZM317.56 255.707C317.56 255.707 317.52 255.773 317.481 255.799V257.552H29.4703V255.285C29.4175 255.074 29.4175 254.85 29.4703 254.64V42.0483C29.4175 41.8506 29.4175 41.6266 29.4703 41.4157V42.0483C29.5363 42.3514 29.708 42.6281 29.9853 42.8258L46.162 54.2645C46.3997 54.4358 46.6638 54.5149 46.9279 54.5149C47.3373 54.5149 47.7466 54.3172 48.0107 53.9614C48.4333 53.3684 48.2881 52.5381 47.6938 52.1164L31.5172 40.6777C31.2795 40.5196 31.0153 40.4405 30.7512 40.4405H316.477C316.213 40.4405 315.949 40.5196 315.725 40.6777L299.535 52.1164C298.94 52.5381 298.808 53.3684 299.218 53.9614C299.482 54.3172 299.891 54.5149 300.301 54.5149C300.565 54.5149 300.829 54.4358 301.066 54.2645L317.243 42.8258C317.336 42.7599 317.415 42.6808 317.481 42.6017V40.9149C317.481 40.9149 317.547 40.9676 317.56 40.994C317.917 41.4948 317.864 42.1537 317.481 42.6017V254.099C317.864 254.547 317.917 255.206 317.56 255.707Z" fill="#2D2727"/>
<path d="M29.4702 41.4157V42.0483C29.4175 41.8506 29.4175 41.6266 29.4702 41.4157Z" fill="#2D2727"/>
<path d="M317.481 42.6018V40.9149C317.481 40.9149 317.547 40.9676 317.56 40.994C317.917 41.4948 317.864 42.1537 317.481 42.6018Z" fill="#2D2727"/>
<rect x="61.7561" y="63.5854" width="227.098" height="174.659" stroke="#2B3332" stroke-width="4"/>
</g>
<defs>
<clipPath id="clip0_77_6066">
<rect width="260.976" height="429.878" fill="white" transform="translate(239.024 38.4146)"/>
</clipPath>
<clipPath id="clip1_77_6066">
<rect width="350.61" height="509.146" fill="white"/>
</clipPath>
<clipPath id="clip2_77_6066">
<rect width="303.659" height="19.5122" fill="white" transform="translate(23.7805 0.609756)"/>
</clipPath>
<clipPath id="clip3_77_6066">
<rect width="296.341" height="52.439" fill="white" transform="translate(26.8292 456.707)"/>
</clipPath>
<clipPath id="clip4_77_6066">
<rect width="293.293" height="237.195" fill="white" transform="translate(26.8292 37.8049)"/>
</clipPath>
</defs>
</svg>
