<svg width="301" height="306" viewBox="0 0 301 306" fill="none" xmlns="http://www.w3.org/2000/svg">
<g clip-path="url(#clip0_77_6066)">
<path d="M286.931 23.7929H183.019C176.014 23.7929 170.342 28.2582 170.342 33.7594V270.784C170.342 276.285 176.014 280.75 183.019 280.75H286.923C293.928 280.75 299.6 276.285 299.6 270.784V33.7504C299.6 28.2493 293.928 23.784 286.923 23.784L286.931 23.7929Z" fill="#950933"/>
<path d="M286.931 281.447H183.028C175.54 281.447 169.457 276.66 169.457 270.784V33.7504C169.457 27.8652 175.549 23.0874 183.028 23.0874H286.931C294.411 23.0874 300.503 27.8742 300.503 33.7504V270.775C300.503 276.66 294.411 281.438 286.931 281.438V281.447ZM183.028 24.4895C176.533 24.4895 171.246 28.6422 171.246 33.7504V270.775C171.246 275.883 176.533 280.036 183.028 280.036H286.931C293.427 280.036 298.714 275.883 298.714 270.775V33.7504C298.714 28.6422 293.427 24.4895 286.931 24.4895H183.028Z" fill="#2D2727"/>
<path d="M281.734 23.7929H188.217C181.212 23.7929 175.54 28.2582 175.54 33.7594V270.784C175.54 276.285 181.212 280.75 188.217 280.75H143.655H281.734C288.739 280.75 294.411 276.285 294.411 270.784V33.7504C294.411 28.2493 288.739 23.784 281.734 23.784V23.7929Z" fill="#FAFAFA"/>
<path d="M281.734 281.447H188.217C180.738 281.447 174.645 276.66 174.645 270.784V33.7504C174.645 27.8652 180.738 23.0874 188.217 23.0874H281.734C289.213 23.0874 295.305 27.8742 295.305 33.7504V270.775C295.305 276.66 289.213 281.438 281.734 281.438V281.447ZM188.217 24.4895C181.722 24.4895 176.435 28.6422 176.435 33.7504V270.775C176.435 275.883 181.722 280.036 188.217 280.036H281.734C288.229 280.036 293.516 275.883 293.516 270.775V33.7504C293.516 28.6422 288.229 24.4895 281.734 24.4895H188.217Z" fill="#2D2727"/>
</g>
<g clip-path="url(#clip1_77_6066)">
<path d="M198.074 0.832813H12.6443C6.11792 0.832813 0.833496 6.11284 0.833496 12.6338V293.358C0.833496 299.879 6.11792 305.159 12.6443 305.159H198.074C204.601 305.159 209.885 299.879 209.885 293.358V12.6338C209.885 6.11284 204.601 0.832813 198.074 0.832813Z" fill="#950933"/>
<path d="M198.074 306H12.6443C5.66784 306 0 300.329 0 293.366V12.6338C0 5.67145 5.67617 0 12.6443 0H198.074C205.042 0 210.719 5.67145 210.719 12.6338V293.366C210.719 300.329 205.042 306 198.074 306ZM12.6443 1.66562C6.59303 1.66562 1.66701 6.58754 1.66701 12.6338V293.366C1.66701 299.412 6.59303 304.334 12.6443 304.334H198.074C204.126 304.334 209.052 299.412 209.052 293.366V12.6338C209.052 6.58754 204.126 1.66562 198.074 1.66562H12.6443Z" fill="#2D2727"/>
<path d="M193.232 0.832813H17.4869C10.9606 0.832813 5.67615 6.11284 5.67615 12.6338V293.358C5.67615 299.879 10.9606 305.159 17.4869 305.159H193.24C199.766 305.159 205.051 299.879 205.051 293.358V12.6338C205.051 6.11284 199.766 0.832813 193.24 0.832813H193.232Z" fill="#D70342"/>
<path d="M193.232 306H17.4869C10.5188 306 4.84265 300.329 4.84265 293.366V12.6338C4.84265 5.67145 10.5105 0 17.4869 0H193.24C200.208 0 205.884 5.67145 205.884 12.6338V293.366C205.884 300.329 200.208 306 193.24 306H193.232ZM17.4869 1.66562C11.4357 1.66562 6.50966 6.58754 6.50966 12.6338V293.366C6.50966 299.412 11.4357 304.334 17.4869 304.334H193.24C199.291 304.334 204.217 299.412 204.217 293.366V12.6338C204.217 6.58754 199.291 1.66562 193.24 1.66562H17.4869Z" fill="#2D2727"/>
<path d="M166.759 306H43.7841V305.167C43.7841 299.546 48.36 294.965 53.9945 294.965H156.549C162.175 294.965 166.759 299.537 166.759 305.167V306ZM45.4927 304.334H165.051C164.634 300.02 160.983 296.631 156.549 296.631H53.9945C49.5686 296.631 45.9178 300.012 45.4927 304.334Z" fill="#2D2727"/>
<rect x="17.9569" y="24.5533" width="174.072" height="131.562" fill="#9FC9E4"/>
<rect x="36.2803" y="37.3796" width="138.525" height="105.909" fill="#F4EFEF"/>
</g>
<g clip-path="url(#clip2_77_6066)">
<path d="M185.958 12.0934H25.1269C19.148 12.0934 14.2922 7.22562 14.2922 1.25152V0.366467H196.793V1.25152C196.793 7.22562 191.937 12.0934 185.958 12.0934ZM16.1054 2.13657C16.5476 6.72114 20.4216 10.3233 25.1269 10.3233H185.958C190.655 10.3233 194.529 6.72999 194.98 2.13657H16.1054Z" fill="#2D2727"/>
<path d="M140.771 12.0934H70.3054C64.3353 12.0934 59.4707 7.23447 59.4707 1.25152V0.366467H151.605V1.25152C151.605 7.22562 146.75 12.0934 140.771 12.0934ZM61.2839 2.13657C61.7261 6.72114 65.6089 10.3233 70.3054 10.3233H140.771C145.467 10.3233 149.341 6.72999 149.792 2.13657H61.2839Z" fill="#2D2727"/>
<path d="M98.511 6.22552H112.574" stroke="#2D2727" stroke-width="3" stroke-linecap="round" stroke-linejoin="round"/>
</g>
<g clip-path="url(#clip3_77_6066)">
<path d="M85.0328 290.773C84.3579 290.773 83.7996 290.229 83.7829 289.544L83.4663 275.763C83.4496 275.069 83.9996 274.501 84.6912 274.484C85.3827 274.484 85.9577 275.019 85.966 275.712L86.2826 289.494C86.2993 290.188 85.7494 290.756 85.0578 290.773H85.0245H85.0328Z" fill="#2D2727"/>
<path d="M94.415 290.773C93.7401 290.773 93.1818 290.229 93.1651 289.544L92.8485 275.763C92.8318 275.069 93.3818 274.501 94.0734 274.484C94.7733 274.484 95.3399 275.019 95.3482 275.712L95.6648 289.494C95.6815 290.188 95.1316 290.756 94.44 290.773H94.4067H94.415Z" fill="#2D2727"/>
<path d="M103.322 290.773C102.631 290.773 102.072 290.213 102.072 289.527L102.006 276.398C102.006 275.704 102.556 275.144 103.247 275.136C103.939 275.136 104.497 275.696 104.497 276.381L104.564 289.511C104.564 290.204 104.014 290.764 103.322 290.773Z" fill="#2D2727"/>
<path d="M111.854 290.773C111.18 290.773 110.621 290.229 110.605 289.544L110.288 275.763C110.271 275.069 110.821 274.501 111.513 274.484C112.221 274.484 112.779 275.019 112.788 275.712L113.104 289.494C113.121 290.188 112.571 290.756 111.879 290.773H111.846H111.854Z" fill="#2D2727"/>
<path d="M122.328 290.773C121.653 290.773 121.095 290.229 121.078 289.544L120.762 275.763C120.745 275.069 121.295 274.501 121.987 274.484C122.695 274.484 123.253 275.019 123.261 275.712L123.578 289.494C123.595 290.188 123.045 290.756 122.353 290.773H122.32H122.328Z" fill="#2D2727"/>
<path d="M17.6494 285.491C16.8079 285.491 16.1246 284.805 16.1246 283.961C16.1246 283.117 16.8079 282.432 17.6494 282.432C18.491 282.432 19.1743 283.117 19.1743 283.961C19.1743 284.805 18.491 285.491 17.6494 285.491ZM17.6494 283.268C17.2662 283.268 16.9579 283.577 16.9579 283.961C16.9579 284.346 17.2662 284.655 17.6494 284.655C18.0327 284.655 18.341 284.346 18.341 283.961C18.341 283.577 18.0327 283.268 17.6494 283.268Z" fill="#2D2727"/>
<path d="M30.3062 285.491C29.4646 285.491 28.7814 284.805 28.7814 283.961C28.7814 283.117 29.4646 282.432 30.3062 282.432C31.1477 282.432 31.831 283.117 31.831 283.961C31.831 284.805 31.1477 285.491 30.3062 285.491ZM30.3062 283.268C29.9229 283.268 29.6146 283.577 29.6146 283.961C29.6146 284.346 29.9229 284.655 30.3062 284.655C30.6895 284.655 30.9978 284.346 30.9978 283.961C30.9978 283.577 30.6895 283.268 30.3062 283.268Z" fill="#2D2727"/>
<path d="M35.9639 285.491C35.1223 285.491 34.4391 284.805 34.4391 283.961C34.4391 283.117 35.1223 282.432 35.9639 282.432C36.8055 282.432 37.4887 283.117 37.4887 283.961C37.4887 284.805 36.8055 285.491 35.9639 285.491ZM35.9639 283.268C35.5806 283.268 35.2723 283.577 35.2723 283.961C35.2723 284.346 35.5806 284.655 35.9639 284.655C36.3472 284.655 36.6555 284.346 36.6555 283.961C36.6555 283.577 36.3472 283.268 35.9639 283.268Z" fill="#2D2727"/>
<path d="M23.8654 285.491C23.0238 285.491 22.3406 284.805 22.3406 283.961C22.3406 283.117 23.0238 282.432 23.8654 282.432C24.707 282.432 25.3902 283.117 25.3902 283.961C25.3902 284.805 24.707 285.491 23.8654 285.491ZM23.8654 283.268C23.4821 283.268 23.1738 283.577 23.1738 283.961C23.1738 284.346 23.4821 284.655 23.8654 284.655C24.2487 284.655 24.557 284.346 24.557 283.961C24.557 283.577 24.2487 283.268 23.8654 283.268Z" fill="#2D2727"/>
<path d="M17.6494 290.605C16.8079 290.605 16.1246 289.92 16.1246 289.076C16.1246 288.232 16.8079 287.547 17.6494 287.547C18.491 287.547 19.1743 288.232 19.1743 289.076C19.1743 289.92 18.491 290.605 17.6494 290.605ZM17.6494 288.382C17.2662 288.382 16.9579 288.692 16.9579 289.076C16.9579 289.46 17.2662 289.77 17.6494 289.77C18.0327 289.77 18.341 289.46 18.341 289.076C18.341 288.692 18.0327 288.382 17.6494 288.382Z" fill="#2D2727"/>
<path d="M30.3062 290.605C29.4646 290.605 28.7814 289.92 28.7814 289.076C28.7814 288.232 29.4646 287.547 30.3062 287.547C31.1477 287.547 31.831 288.232 31.831 289.076C31.831 289.92 31.1477 290.605 30.3062 290.605ZM30.3062 288.382C29.9229 288.382 29.6146 288.692 29.6146 289.076C29.6146 289.46 29.9229 289.77 30.3062 289.77C30.6895 289.77 30.9978 289.46 30.9978 289.076C30.9978 288.692 30.6895 288.382 30.3062 288.382Z" fill="#2D2727"/>
<path d="M35.9639 290.605C35.1223 290.605 34.4391 289.92 34.4391 289.076C34.4391 288.232 35.1223 287.547 35.9639 287.547C36.8055 287.547 37.4887 288.232 37.4887 289.076C37.4887 289.92 36.8055 290.605 35.9639 290.605ZM35.9639 288.382C35.5806 288.382 35.2723 288.692 35.2723 289.076C35.2723 289.46 35.5806 289.77 35.9639 289.77C36.3472 289.77 36.6555 289.46 36.6555 289.076C36.6555 288.692 36.3472 288.382 35.9639 288.382Z" fill="#2D2727"/>
<path d="M23.8654 290.605C23.0238 290.605 22.3406 289.92 22.3406 289.076C22.3406 288.232 23.0238 287.547 23.8654 287.547C24.707 287.547 25.3902 288.232 25.3902 289.076C25.3902 289.92 24.707 290.605 23.8654 290.605ZM23.8654 288.382C23.4821 288.382 23.1738 288.692 23.1738 289.076C23.1738 289.46 23.4821 289.77 23.8654 289.77C24.2487 289.77 24.557 289.46 24.557 289.076C24.557 288.692 24.2487 288.382 23.8654 288.382Z" fill="#2D2727"/>
<path d="M17.6494 296.598C16.8079 296.598 16.1246 295.912 16.1246 295.068C16.1246 294.224 16.8079 293.539 17.6494 293.539C18.491 293.539 19.1743 294.224 19.1743 295.068C19.1743 295.912 18.491 296.598 17.6494 296.598ZM17.6494 294.375C17.2662 294.375 16.9579 294.684 16.9579 295.068C16.9579 295.453 17.2662 295.762 17.6494 295.762C18.0327 295.762 18.341 295.453 18.341 295.068C18.341 294.684 18.0327 294.375 17.6494 294.375Z" fill="#2D2727"/>
<path d="M30.3062 296.598C29.4646 296.598 28.7814 295.912 28.7814 295.068C28.7814 294.224 29.4646 293.539 30.3062 293.539C31.1477 293.539 31.831 294.224 31.831 295.068C31.831 295.912 31.1477 296.598 30.3062 296.598ZM30.3062 294.375C29.9229 294.375 29.6146 294.684 29.6146 295.068C29.6146 295.453 29.9229 295.762 30.3062 295.762C30.6895 295.762 30.9978 295.453 30.9978 295.068C30.9978 294.684 30.6895 294.375 30.3062 294.375Z" fill="#2D2727"/>
<path d="M35.9639 296.598C35.1223 296.598 34.4391 295.912 34.4391 295.068C34.4391 294.224 35.1223 293.539 35.9639 293.539C36.8055 293.539 37.4887 294.224 37.4887 295.068C37.4887 295.912 36.8055 296.598 35.9639 296.598ZM35.9639 294.375C35.5806 294.375 35.2723 294.684 35.2723 295.068C35.2723 295.453 35.5806 295.762 35.9639 295.762C36.3472 295.762 36.6555 295.453 36.6555 295.068C36.6555 294.684 36.3472 294.375 35.9639 294.375Z" fill="#2D2727"/>
<path d="M23.8654 296.598C23.0238 296.598 22.3406 295.912 22.3406 295.068C22.3406 294.224 23.0238 293.539 23.8654 293.539C24.707 293.539 25.3902 294.224 25.3902 295.068C25.3902 295.912 24.707 296.598 23.8654 296.598ZM23.8654 294.375C23.4821 294.375 23.1738 294.684 23.1738 295.068C23.1738 295.453 23.4821 295.762 23.8654 295.762C24.2487 295.762 24.557 295.453 24.557 295.068C24.557 294.684 24.2487 294.375 23.8654 294.375Z" fill="#2D2727"/>
<path d="M174.388 285.491C173.547 285.491 172.864 284.805 172.864 283.961C172.864 283.117 173.547 282.432 174.388 282.432C175.23 282.432 175.913 283.117 175.913 283.961C175.913 284.805 175.23 285.491 174.388 285.491ZM174.388 283.268C174.005 283.268 173.697 283.577 173.697 283.961C173.697 284.346 174.005 284.655 174.388 284.655C174.772 284.655 175.08 284.346 175.08 283.961C175.08 283.577 174.772 283.268 174.388 283.268Z" fill="#2D2727"/>
<path d="M187.045 285.491C186.204 285.491 185.52 284.805 185.52 283.961C185.52 283.117 186.204 282.432 187.045 282.432C187.887 282.432 188.57 283.117 188.57 283.961C188.57 284.805 187.887 285.491 187.045 285.491ZM187.045 283.268C186.662 283.268 186.354 283.577 186.354 283.961C186.354 284.346 186.662 284.655 187.045 284.655C187.428 284.655 187.737 284.346 187.737 283.961C187.737 283.577 187.428 283.268 187.045 283.268Z" fill="#2D2727"/>
<path d="M192.703 285.491C191.861 285.491 191.178 284.805 191.178 283.961C191.178 283.117 191.861 282.432 192.703 282.432C193.544 282.432 194.228 283.117 194.228 283.961C194.228 284.805 193.544 285.491 192.703 285.491ZM192.703 283.268C192.32 283.268 192.011 283.577 192.011 283.961C192.011 284.346 192.32 284.655 192.703 284.655C193.086 284.655 193.394 284.346 193.394 283.961C193.394 283.577 193.086 283.268 192.703 283.268Z" fill="#2D2727"/>
<path d="M180.604 285.491C179.763 285.491 179.08 284.805 179.08 283.961C179.08 283.117 179.763 282.432 180.604 282.432C181.446 282.432 182.129 283.117 182.129 283.961C182.129 284.805 181.446 285.491 180.604 285.491ZM180.604 283.268C180.221 283.268 179.913 283.577 179.913 283.961C179.913 284.346 180.221 284.655 180.604 284.655C180.988 284.655 181.296 284.346 181.296 283.961C181.296 283.577 180.988 283.268 180.604 283.268Z" fill="#2D2727"/>
<path d="M174.388 290.605C173.547 290.605 172.864 289.92 172.864 289.076C172.864 288.232 173.547 287.547 174.388 287.547C175.23 287.547 175.913 288.232 175.913 289.076C175.913 289.92 175.23 290.605 174.388 290.605ZM174.388 288.382C174.005 288.382 173.697 288.692 173.697 289.076C173.697 289.46 174.005 289.77 174.388 289.77C174.772 289.77 175.08 289.46 175.08 289.076C175.08 288.692 174.772 288.382 174.388 288.382Z" fill="#2D2727"/>
<path d="M187.045 290.605C186.204 290.605 185.52 289.92 185.52 289.076C185.52 288.232 186.204 287.547 187.045 287.547C187.887 287.547 188.57 288.232 188.57 289.076C188.57 289.92 187.887 290.605 187.045 290.605ZM187.045 288.382C186.662 288.382 186.354 288.692 186.354 289.076C186.354 289.46 186.662 289.77 187.045 289.77C187.428 289.77 187.737 289.46 187.737 289.076C187.737 288.692 187.428 288.382 187.045 288.382Z" fill="#2D2727"/>
<path d="M192.703 290.605C191.861 290.605 191.178 289.92 191.178 289.076C191.178 288.232 191.861 287.547 192.703 287.547C193.544 287.547 194.228 288.232 194.228 289.076C194.228 289.92 193.544 290.605 192.703 290.605ZM192.703 288.382C192.32 288.382 192.011 288.692 192.011 289.076C192.011 289.46 192.32 289.77 192.703 289.77C193.086 289.77 193.394 289.46 193.394 289.076C193.394 288.692 193.086 288.382 192.703 288.382Z" fill="#2D2727"/>
<path d="M180.604 290.605C179.763 290.605 179.08 289.92 179.08 289.076C179.08 288.232 179.763 287.547 180.604 287.547C181.446 287.547 182.129 288.232 182.129 289.076C182.129 289.92 181.446 290.605 180.604 290.605ZM180.604 288.382C180.221 288.382 179.913 288.692 179.913 289.076C179.913 289.46 180.221 289.77 180.604 289.77C180.988 289.77 181.296 289.46 181.296 289.076C181.296 288.692 180.988 288.382 180.604 288.382Z" fill="#2D2727"/>
<path d="M174.388 296.598C173.547 296.598 172.864 295.912 172.864 295.068C172.864 294.224 173.547 293.539 174.388 293.539C175.23 293.539 175.913 294.224 175.913 295.068C175.913 295.912 175.23 296.598 174.388 296.598ZM174.388 294.375C174.005 294.375 173.697 294.684 173.697 295.068C173.697 295.453 174.005 295.762 174.388 295.762C174.772 295.762 175.08 295.453 175.08 295.068C175.08 294.684 174.772 294.375 174.388 294.375Z" fill="#2D2727"/>
<path d="M187.045 296.598C186.204 296.598 185.52 295.912 185.52 295.068C185.52 294.224 186.204 293.539 187.045 293.539C187.887 293.539 188.57 294.224 188.57 295.068C188.57 295.912 187.887 296.598 187.045 296.598ZM187.045 294.375C186.662 294.375 186.354 294.684 186.354 295.068C186.354 295.453 186.662 295.762 187.045 295.762C187.428 295.762 187.737 295.453 187.737 295.068C187.737 294.684 187.428 294.375 187.045 294.375Z" fill="#2D2727"/>
<path d="M192.703 296.598C191.861 296.598 191.178 295.912 191.178 295.068C191.178 294.224 191.861 293.539 192.703 293.539C193.544 293.539 194.228 294.224 194.228 295.068C194.228 295.912 193.544 296.598 192.703 296.598ZM192.703 294.375C192.32 294.375 192.011 294.684 192.011 295.068C192.011 295.453 192.32 295.762 192.703 295.762C193.086 295.762 193.394 295.453 193.394 295.068C193.394 294.684 193.086 294.375 192.703 294.375Z" fill="#2D2727"/>
<path d="M180.604 296.598C179.763 296.598 179.08 295.912 179.08 295.068C179.08 294.224 179.763 293.539 180.604 293.539C181.446 293.539 182.129 294.224 182.129 295.068C182.129 295.912 181.446 296.598 180.604 296.598ZM180.604 294.375C180.221 294.375 179.913 294.684 179.913 295.068C179.913 295.453 180.221 295.762 180.604 295.762C180.988 295.762 181.296 295.453 181.296 295.068C181.296 294.684 180.988 294.375 180.604 294.375Z" fill="#2D2727"/>
</g>
<g clip-path="url(#clip4_77_6066)">
<path d="M191.054 153.744V154.766C190.911 154.948 190.681 155.043 190.451 155.043C190.292 155.043 190.133 154.996 189.998 154.901L180.268 148.026C179.911 147.772 179.832 147.273 180.078 146.917C180.332 146.561 180.832 146.481 181.189 146.735L190.911 153.61C190.967 153.649 191.014 153.697 191.054 153.744Z" fill="#2D2727"/>
<path d="M18.8451 155.464L17.8583 155.199C17.7193 155.014 17.687 154.767 17.7466 154.545C17.7877 154.392 17.8747 154.251 18.0014 154.145L27.1602 146.526C27.4975 146.246 28 146.299 28.2806 146.629C28.5591 146.966 28.5062 147.47 28.169 147.749L19.0122 155.361C18.9595 155.404 18.9013 155.438 18.8451 155.464Z" fill="#2D2727"/>
<path d="M191.602 22.721H16.9183C16.4818 22.721 16.1246 23.0774 16.1246 23.513V155.582C16.1246 156.018 16.4818 156.374 16.9183 156.374H45.7438C46.1486 161.348 50.347 165.277 55.4343 165.277H153.086C158.173 165.277 162.371 161.348 162.776 156.374H191.602C192.038 156.374 192.395 156.018 192.395 155.582V23.513C192.395 23.0774 192.038 22.721 191.602 22.721ZM153.086 163.693H55.4343C51.22 163.693 47.7359 160.477 47.3391 156.374H161.181C160.776 160.477 157.3 163.693 153.086 163.693ZM190.856 153.681C190.856 153.681 190.832 153.721 190.808 153.737V154.79H17.7119V153.428C17.6802 153.301 17.6802 153.167 17.7119 153.04V25.2713C17.6802 25.1525 17.6802 25.0178 17.7119 24.8911V25.2713C17.7516 25.4534 17.8548 25.6197 18.0215 25.7385L27.7437 32.6133C27.8866 32.7162 28.0453 32.7638 28.2041 32.7638C28.4501 32.7638 28.6961 32.645 28.8549 32.4311C29.1088 32.0747 29.0215 31.5757 28.6644 31.3223L18.9421 24.4476C18.7992 24.3525 18.6405 24.305 18.4818 24.305H190.205C190.046 24.305 189.887 24.3525 189.752 24.4476L180.022 31.3223C179.665 31.5757 179.586 32.0747 179.832 32.4311C179.99 32.645 180.236 32.7638 180.483 32.7638C180.641 32.7638 180.8 32.7162 180.943 32.6133L190.665 25.7385C190.721 25.6989 190.768 25.6514 190.808 25.6039V24.5901C190.808 24.5901 190.848 24.6218 190.856 24.6376C191.07 24.9386 191.038 25.3346 190.808 25.6039V152.715C191.038 152.984 191.07 153.381 190.856 153.681Z" fill="#2D2727"/>
<path d="M17.7118 24.8911V25.2708C17.6802 25.1522 17.6802 25.0177 17.7118 24.8911Z" fill="#2D2727"/>
<path d="M190.808 25.6039V24.5901C190.808 24.5901 190.848 24.6218 190.856 24.6376C191.07 24.9386 191.038 25.3346 190.808 25.6039Z" fill="#2D2727"/>
<rect x="37.9138" y="39.0132" width="134.891" height="103.375" stroke="#2B3332" stroke-width="4"/>
</g>
<defs>
<clipPath id="clip0_77_6066">
<rect width="156.848" height="258.359" fill="white" transform="translate(143.655 23.0874)"/>
</clipPath>
<clipPath id="clip1_77_6066">
<rect width="210.719" height="306" fill="white"/>
</clipPath>
<clipPath id="clip2_77_6066">
<rect width="182.501" height="11.7269" fill="white" transform="translate(14.2922 0.366467)"/>
</clipPath>
<clipPath id="clip3_77_6066">
<rect width="178.103" height="31.5162" fill="white" transform="translate(16.1246 274.484)"/>
</clipPath>
<clipPath id="clip4_77_6066">
<rect width="176.271" height="142.556" fill="white" transform="translate(16.1246 22.721)"/>
</clipPath>
</defs>
</svg>
