<svg width="117" height="114" viewBox="0 0 117 114" fill="none" xmlns="http://www.w3.org/2000/svg">
<g clip-path="url(#clip0_78_10306)">
<path d="M97.969 66.6764C103.31 44.0267 89.2944 21.3319 66.6632 15.9861C44.0321 10.6403 21.3559 24.6679 16.0144 47.3175C10.673 69.9672 24.6891 92.662 47.3202 98.0078C69.9513 103.354 92.6276 89.3261 97.969 66.6764Z" fill="#9FC9E4"/>
<path d="M56.9985 100.64C32.9589 100.64 13.3938 81.0593 13.3938 57C13.3938 32.9407 32.9589 13.3596 56.9985 13.3596C81.0382 13.3596 100.603 32.9407 100.603 57C100.603 81.0593 81.0382 100.64 56.9985 100.64ZM56.9985 16.3802C34.6106 16.3802 16.3969 34.6087 16.3969 57.015C16.3969 79.4213 34.6106 97.6499 56.9985 97.6499C79.3865 97.6499 97.6002 79.4213 97.6002 57.015C97.6002 34.6087 79.3865 16.3802 56.9985 16.3802Z" fill="#2D2727"/>
<path d="M67.7946 4.05746H54.8663C49.4677 4.05746 45.0913 8.43747 45.0913 13.8405V102.699C45.0913 108.102 49.4677 112.482 54.8663 112.482H67.7946C73.1932 112.482 77.5696 108.102 77.5696 102.699V13.8405C77.5696 8.43747 73.1932 4.05746 67.7946 4.05746Z" fill="#2D2727"/>
<path d="M67.7945 114H54.8813C48.6649 114 43.6047 108.936 43.6047 102.714V13.8555C43.6047 7.63406 48.6649 2.56973 54.8813 2.56973H67.7945C74.0109 2.56973 79.0711 7.63406 79.0711 13.8555V102.714C79.0711 108.936 74.0109 114 67.7945 114ZM54.8663 5.57527C50.3016 5.57527 46.5928 9.28711 46.5928 13.8555V102.714C46.5928 107.283 50.3016 110.994 54.8663 110.994H67.7795C72.3442 110.994 76.053 107.283 76.053 102.714V13.8555C76.053 9.28711 72.3442 5.57527 67.7795 5.57527H54.8663Z" fill="#2D2727"/>
<path d="M115.513 64.7543V51.8155C115.513 46.4124 111.137 42.0324 105.738 42.0324L16.9523 42.0324C11.5537 42.0324 7.1773 46.4124 7.1773 51.8155V64.7543C7.1773 70.1573 11.5537 74.5373 16.9523 74.5373H105.738C111.137 74.5373 115.513 70.1573 115.513 64.7543Z" fill="#2D2727"/>
<path d="M105.723 76.025H16.9373C10.721 76.025 5.66077 70.9607 5.66077 64.7393V51.8155C5.66077 45.594 10.721 40.5297 16.9373 40.5297H105.723C111.94 40.5297 117 45.594 117 51.8155V64.7393C117 70.9607 111.94 76.025 105.723 76.025ZM16.9373 43.5352C12.3727 43.5352 8.66385 47.247 8.66385 51.8155V64.7393C8.66385 69.3077 12.3727 73.0195 16.9373 73.0195H105.723C110.288 73.0195 113.997 69.3077 113.997 64.7393V51.8155C113.997 47.247 110.288 43.5352 105.723 43.5352H16.9373Z" fill="#2D2727"/>
<path d="M100.063 39.4627H71.9088V11.2858C71.9088 5.87583 67.5393 1.50278 62.1338 1.50278H49.2205C43.815 1.50278 39.4455 5.87583 39.4455 11.2858V39.4627H11.2766C5.87107 39.4627 1.50159 43.8358 1.50159 49.2457V62.1695C1.50159 67.5795 5.87107 71.9525 11.2766 71.9525H39.4305V100.129C39.4305 105.539 43.8 109.912 49.2055 109.912H62.1188C67.5243 109.912 71.8938 105.539 71.8938 100.129V71.9525H100.048C105.453 71.9525 109.823 67.5795 109.823 62.1695V49.2457C109.823 43.8358 105.453 39.4627 100.048 39.4627H100.063Z" fill="#F4EFEF"/>
<path d="M62.1337 111.43H49.2055C42.9891 111.43 37.9289 106.366 37.9289 100.144V73.4703H11.2766C5.06019 73.4703 0 68.406 0 62.1846V49.2457C0 43.0243 5.06019 37.9599 11.2766 37.9599H37.9289V11.2858C37.9289 5.06433 42.9891 0 49.2055 0H62.1337C68.3501 0 73.4103 5.06433 73.4103 11.2858V37.9599H100.063C106.279 37.9599 111.339 43.0243 111.339 49.2457V62.1846C111.339 68.406 106.279 73.4703 100.063 73.4703H73.4103V100.144C73.4103 106.366 68.3501 111.43 62.1337 111.43ZM11.2766 40.9655C6.71188 40.9655 3.00308 44.6773 3.00308 49.2457V62.1846C3.00308 66.753 6.71188 70.4648 11.2766 70.4648H40.932V100.144C40.932 104.713 44.6408 108.425 49.2055 108.425H62.1337C66.6984 108.425 70.4072 104.713 70.4072 100.144V70.4648H100.063C104.627 70.4648 108.336 66.753 108.336 62.1846V49.2457C108.336 44.6773 104.627 40.9655 100.063 40.9655H70.4072V11.2858C70.4072 6.71738 66.6984 3.00554 62.1337 3.00554H49.2055C44.6408 3.00554 40.932 6.71738 40.932 11.2858V40.9655H11.2766Z" fill="#2D2727"/>
<path d="M55.527 66.9634C61.4812 66.9634 66.3081 62.1326 66.3081 56.1735C66.3081 50.2144 61.4812 45.3836 55.527 45.3836C49.5728 45.3836 44.746 50.2144 44.746 56.1735C44.746 62.1326 49.5728 66.9634 55.527 66.9634Z" fill="#F4EFEF"/>
<path d="M55.527 68.4661C48.755 68.4661 43.2444 62.951 43.2444 56.1885C43.2444 49.4261 48.755 43.8959 55.527 43.8959C62.2989 43.8959 67.7946 49.411 67.7946 56.1885C67.7946 62.966 62.2839 68.4661 55.527 68.4661ZM55.527 46.9014C50.4067 46.9014 46.2475 51.0641 46.2475 56.1885C46.2475 61.313 50.4067 65.4606 55.527 65.4606C60.6472 65.4606 64.7915 61.2979 64.7915 56.1885C64.7915 51.0791 60.6322 46.9014 55.527 46.9014Z" fill="#2D2727"/>
</g>
<defs>
<clipPath id="clip0_78_10306">
<rect width="117" height="114" fill="white"/>
</clipPath>
</defs>
</svg>
