<svg width="68" height="66" viewBox="0 0 68 66" fill="none" xmlns="http://www.w3.org/2000/svg">
<g clip-path="url(#clip0_78_10306)">
<path d="M56.9393 38.6021C60.0437 25.4891 51.8976 12.35 38.7445 9.25511C25.5914 6.16017 12.412 14.2814 9.30758 27.3943C6.20316 40.5073 14.3493 53.6464 27.5024 56.7413C40.6555 59.8363 53.8349 51.7151 56.9393 38.6021Z" fill="#9FC9E4"/>
<path d="M33.1273 58.2655C19.1556 58.2655 7.78442 46.9291 7.78442 33C7.78442 19.0709 19.1556 7.7345 33.1273 7.7345C47.0991 7.7345 58.4703 19.0709 58.4703 33C58.4703 46.9291 47.0991 58.2655 33.1273 58.2655ZM33.1273 9.48324C20.1155 9.48324 9.5298 20.0366 9.5298 33.0087C9.5298 45.9807 20.1155 56.5341 33.1273 56.5341C46.1391 56.5341 56.7249 45.9807 56.7249 33.0087C56.7249 20.0366 46.1391 9.48324 33.1273 9.48324Z" fill="#2D2727"/>
<path d="M39.402 2.34906H31.8881C28.7505 2.34906 26.2069 4.88485 26.2069 8.01292V59.4574C26.2069 62.5855 28.7505 65.1213 31.8881 65.1213H39.402C42.5396 65.1213 45.0832 62.5855 45.0832 59.4574V8.01292C45.0832 4.88485 42.5396 2.34906 39.402 2.34906Z" fill="#2D2727"/>
<path d="M39.4019 66H31.8968C28.2839 66 25.3429 63.068 25.3429 59.4661V8.02161C25.3429 4.41971 28.2839 1.48773 31.8968 1.48773H39.4019C43.0149 1.48773 45.9558 4.41971 45.9558 8.02161V59.4661C45.9558 63.068 43.0149 66 39.4019 66ZM31.8881 3.22778C29.2351 3.22778 27.0795 5.37674 27.0795 8.02161V59.4661C27.0795 62.111 29.2351 64.26 31.8881 64.26H39.3932C42.0462 64.26 44.2017 62.111 44.2017 59.4661V8.02161C44.2017 5.37674 42.0462 3.22778 39.3932 3.22778H31.8881Z" fill="#2D2727"/>
<path d="M67.136 37.4893V29.9984C67.136 26.8704 64.5924 24.3346 61.4548 24.3346L9.85262 24.3346C6.71497 24.3346 4.1714 26.8704 4.1714 29.9984V37.4893C4.1714 40.6174 6.71497 43.1532 9.85262 43.1532H61.4548C64.5924 43.1532 67.136 40.6174 67.136 37.4893Z" fill="#2D2727"/>
<path d="M61.4461 44.0145H9.84394C6.231 44.0145 3.29004 41.0825 3.29004 37.4806V29.9984C3.29004 26.3965 6.231 23.4645 9.84394 23.4645H61.4461C65.059 23.4645 68 26.3965 68 29.9984V37.4806C68 41.0825 65.059 44.0145 61.4461 44.0145ZM9.84394 25.2046C7.19096 25.2046 5.03542 27.3535 5.03542 29.9984V37.4806C5.03542 40.1255 7.19096 42.2744 9.84394 42.2744H61.4461C64.0991 42.2744 66.2546 40.1255 66.2546 37.4806V29.9984C66.2546 27.3535 64.0991 25.2046 61.4461 25.2046H9.84394Z" fill="#2D2727"/>
<path d="M58.156 22.8468H41.7931V6.53388C41.7931 3.40179 39.2536 0.870026 36.1119 0.870026H28.6068C25.4651 0.870026 22.9256 3.40179 22.9256 6.53388V22.8468H6.55389C3.41221 22.8468 0.872681 25.3786 0.872681 28.5107V35.9929C0.872681 39.125 3.41221 41.6567 6.55389 41.6567H22.9168V57.9697C22.9168 61.1018 25.4564 63.6335 28.598 63.6335H36.1032C39.2449 63.6335 41.7844 61.1018 41.7844 57.9697V41.6567H58.1473C61.289 41.6567 63.8285 39.125 63.8285 35.9929V28.5107C63.8285 25.3786 61.289 22.8468 58.1473 22.8468H58.156Z" fill="#F4EFEF"/>
<path d="M36.1119 64.5123H28.5981C24.9851 64.5123 22.0441 61.5803 22.0441 57.9784V42.5355H6.5539C2.94097 42.5355 0 39.6035 0 36.0016V28.5107C0 24.9088 2.94097 21.9768 6.5539 21.9768H22.0441V6.53388C22.0441 2.93198 24.9851 0 28.5981 0H36.1119C39.7248 0 42.6658 2.93198 42.6658 6.53388V21.9768H58.1561C61.769 21.9768 64.71 24.9088 64.71 28.5107V36.0016C64.71 39.6035 61.769 42.5355 58.1561 42.5355H42.6658V57.9784C42.6658 61.5803 39.7248 64.5123 36.1119 64.5123ZM6.5539 23.7169C3.90092 23.7169 1.74538 25.8658 1.74538 28.5107V36.0016C1.74538 38.6465 3.90092 40.7954 6.5539 40.7954H23.7895V57.9784C23.7895 60.6233 25.9451 62.7722 28.5981 62.7722H36.1119C38.7649 62.7722 40.9204 60.6233 40.9204 57.9784V40.7954H58.1561C60.809 40.7954 62.9646 38.6465 62.9646 36.0016V28.5107C62.9646 25.8658 60.809 23.7169 58.1561 23.7169H40.9204V6.53388C40.9204 3.88901 38.7649 1.74005 36.1119 1.74005H28.5981C25.9451 1.74005 23.7895 3.88901 23.7895 6.53388V23.7169H6.5539Z" fill="#2D2727"/>
<path d="M32.272 38.7683C35.7326 38.7683 38.5379 35.9715 38.5379 32.5215C38.5379 29.0715 35.7326 26.2747 32.272 26.2747C28.8114 26.2747 26.0061 29.0715 26.0061 32.5215C26.0061 35.9715 28.8114 38.7683 32.272 38.7683Z" fill="#F4EFEF"/>
<path d="M32.272 39.6383C28.3362 39.6383 25.1334 36.4453 25.1334 32.5302C25.1334 28.6151 28.3362 25.4134 32.272 25.4134C36.2079 25.4134 39.4019 28.6064 39.4019 32.5302C39.4019 36.454 36.1991 39.6383 32.272 39.6383ZM32.272 27.1534C29.2962 27.1534 26.8788 29.5634 26.8788 32.5302C26.8788 35.497 29.2962 37.8982 32.272 37.8982C35.2479 37.8982 37.6565 35.4883 37.6565 32.5302C37.6565 29.5721 35.2392 27.1534 32.272 27.1534Z" fill="#2D2727"/>
</g>
<defs>
<clipPath id="clip0_78_10306">
<rect width="68" height="66" fill="white"/>
</clipPath>
</defs>
</svg>
