<svg width="161" height="157" viewBox="0 0 161 157" fill="none" xmlns="http://www.w3.org/2000/svg">
<g clip-path="url(#clip0_1_12518)">
<path d="M134.115 91.5972C141.427 60.4821 122.24 29.3049 91.2589 21.9611C60.2779 14.6173 29.2352 33.8877 21.923 65.0029C14.6108 96.118 33.7982 127.295 64.7792 134.639C95.7602 141.983 126.803 122.712 134.115 91.5972Z" fill="#9FC9E4"/>
<path d="M78.0283 138.256C45.1191 138.256 18.3354 111.356 18.3354 78.3042C18.3354 45.2525 45.1191 18.3529 78.0283 18.3529C110.938 18.3529 137.721 45.2525 137.721 78.3042C137.721 111.356 110.938 138.256 78.0283 138.256ZM78.0283 22.5024C47.3802 22.5024 22.4465 47.544 22.4465 78.3248C22.4465 109.106 47.3802 134.147 78.0283 134.147C108.676 134.147 133.61 109.106 133.61 78.3248C133.61 47.544 108.676 22.5024 78.0283 22.5024Z" fill="#2D2727"/>
<path d="M92.8077 5.57397H75.1095C67.719 5.57397 61.7279 11.591 61.7279 19.0135V141.084C61.7279 148.506 67.719 154.523 75.1095 154.523H92.8077C100.198 154.523 106.189 148.506 106.189 141.084V19.0135C106.189 11.591 100.198 5.57397 92.8077 5.57397Z" fill="#2D2727"/>
<path d="M92.8076 156.608H75.13C66.62 156.608 59.6929 149.651 59.6929 141.104V19.0341C59.6929 10.4873 66.62 3.53018 75.13 3.53018H92.8076C101.318 3.53018 108.245 10.4873 108.245 19.0341V141.104C108.245 149.651 101.318 156.608 92.8076 156.608ZM75.1094 7.65906C68.8606 7.65906 63.7834 12.7582 63.7834 19.0341V141.104C63.7834 147.38 68.8606 152.479 75.1094 152.479H92.7871C99.0359 152.479 104.113 147.38 104.113 141.104V19.0341C104.113 12.7582 99.0359 7.65906 92.7871 7.65906H75.1094Z" fill="#2D2727"/>
<path d="M158.133 88.9567V71.1819C158.133 63.7594 152.142 57.7424 144.751 57.7424L23.2071 57.7424C15.8166 57.7424 9.82549 63.7594 9.82549 71.1819V88.9567C9.82549 96.3791 15.8166 102.396 23.2071 102.396H144.751C152.142 102.396 158.133 96.3791 158.133 88.9567Z" fill="#2D2727"/>
<path d="M144.731 104.44H23.1865C14.6766 104.44 7.74939 97.4828 7.74939 88.936V71.1819C7.74939 62.6351 14.6766 55.6779 23.1865 55.6779H144.731C153.241 55.6779 160.168 62.6351 160.168 71.1819V88.936C160.168 97.4828 153.241 104.44 144.731 104.44ZM23.1865 59.8068C16.9377 59.8068 11.8605 64.906 11.8605 71.1819V88.936C11.8605 95.2119 16.9377 100.311 23.1865 100.311H144.731C150.979 100.311 156.057 95.2119 156.057 88.936V71.1819C156.057 64.906 150.979 59.8068 144.731 59.8068H23.1865Z" fill="#2D2727"/>
<path d="M136.981 54.2122H98.4398V15.504C98.4398 8.07197 92.4582 2.06445 85.0582 2.06445H67.3806C59.9807 2.06445 53.999 8.07197 53.999 15.504V54.2122H15.4371C8.03716 54.2122 2.05554 60.2197 2.05554 67.6517V85.4059C2.05554 92.8379 8.03716 98.8454 15.4371 98.8454H53.9785V137.554C53.9785 144.986 59.9601 150.993 67.36 150.993H85.0377C92.4376 150.993 98.4193 144.986 98.4193 137.554V98.8454H136.961C144.361 98.8454 150.342 92.8379 150.342 85.4059V67.6517C150.342 60.2197 144.361 54.2122 136.961 54.2122H136.981Z" fill="#F4EFEF"/>
<path d="M85.0582 153.078H67.36C58.8501 153.078 51.9229 146.121 51.9229 137.574V100.93H15.4371C6.92717 100.93 0 93.9733 0 85.4265V67.6517C0 59.1049 6.92717 52.1477 15.4371 52.1477H51.9229V15.5039C51.9229 6.95716 58.8501 0 67.36 0H85.0582C93.5682 0 100.495 6.95716 100.495 15.5039V52.1477H136.981C145.491 52.1477 152.418 59.1049 152.418 67.6517V85.4265C152.418 93.9733 145.491 100.93 136.981 100.93H100.495V137.574C100.495 146.121 93.5682 153.078 85.0582 153.078ZM15.4371 56.2766C9.18826 56.2766 4.11108 61.3758 4.11108 67.6517V85.4265C4.11108 91.7024 9.18826 96.8016 15.4371 96.8016H56.034V137.574C56.034 143.85 61.1112 148.949 67.36 148.949H85.0582C91.3071 148.949 96.3843 143.85 96.3843 137.574V96.8016H136.981C143.23 96.8016 148.307 91.7024 148.307 85.4265V67.6517C148.307 61.3758 143.23 56.2766 136.981 56.2766H96.3843V15.5039C96.3843 9.22805 91.3071 4.12888 85.0582 4.12888H67.36C61.1112 4.12888 56.034 9.22805 56.034 15.5039V56.2766H15.4371Z" fill="#2D2727"/>
<path d="M76.0139 91.9914C84.165 91.9914 90.7727 85.3551 90.7727 77.1687C90.7727 68.9824 84.165 62.3461 76.0139 62.3461C67.8629 62.3461 61.2551 68.9824 61.2551 77.1687C61.2551 85.3551 67.8629 91.9914 76.0139 91.9914Z" fill="#F4EFEF"/>
<path d="M76.0139 94.0559C66.7434 94.0559 59.1996 86.4794 59.1996 77.1894C59.1996 67.8994 66.7434 60.3023 76.0139 60.3023C85.2844 60.3023 92.8077 67.8788 92.8077 77.1894C92.8077 86.5 85.2638 94.0559 76.0139 94.0559ZM76.0139 64.4312C69.0045 64.4312 63.3107 70.1497 63.3107 77.1894C63.3107 84.2291 69.0045 89.927 76.0139 89.927C83.0233 89.927 88.6966 84.2085 88.6966 77.1894C88.6966 70.1703 83.0027 64.4312 76.0139 64.4312Z" fill="#2D2727"/>
</g>
<defs>
<clipPath id="clip0_1_12518">
<rect width="160.168" height="156.608" fill="white"/>
</clipPath>
</defs>
</svg>
