<svg width="84" height="84" viewBox="0 0 84 84" fill="none" xmlns="http://www.w3.org/2000/svg">
<g clip-path="url(#clip0_8_45146)">
<mask id="mask0_8_45146" style="mask-type:luminance" maskUnits="userSpaceOnUse" x="0" y="0" width="84" height="84">
<path d="M84 0.221069H0V83.779H84V0.221069Z" fill="white"/>
</mask>
<g mask="url(#mask0_8_45146)">
<path d="M80.6578 37.2386L77.2489 27.0746C77.12 26.6855 76.8978 26.3362 76.6089 26.0489C76.3156 25.7615 75.96 25.5449 75.5734 25.4211C75.1823 25.2929 74.7689 25.2619 74.36 25.3238C73.9556 25.3857 73.5689 25.5404 73.2356 25.7792L60.0178 35.1695C60.0534 35.532 60.0978 35.8857 60.1112 36.2527C60.3334 42.1238 60.52 47.8535 60.2356 53.0571C60.0578 56.311 60.5867 59.5339 61.6223 62.6066L66.8578 58.7072C67.2712 58.3977 67.5823 57.9777 67.7556 57.4914C67.9289 57.0051 67.9556 56.4834 67.8267 55.9838L65.6267 47.2257L79.3378 40.404C80.5067 39.8204 81.0667 38.4764 80.6534 37.243L80.6578 37.2386Z" fill="#F7C845"/>
<path d="M28.8754 75.9449L24.1643 80.6312C23.991 80.8036 23.8576 81.007 23.7643 81.228C23.671 81.4491 23.6221 81.6878 23.6221 81.931V81.9398C23.6221 82.9567 24.4532 83.779 25.471 83.779H32.271C32.7598 83.779 33.231 83.5845 33.5776 83.2396C33.9243 82.8948 34.1198 82.4261 34.1198 81.9398V75.9493H28.871L28.8754 75.9449Z" fill="#FFD04D"/>
<path d="M55.1243 75.9449L59.8354 80.6312C60.0088 80.8036 60.1421 81.007 60.2354 81.228C60.3288 81.4491 60.3777 81.6878 60.3777 81.931V81.9398C60.3777 82.4261 60.1821 82.8948 59.8354 83.2396C59.4888 83.5845 59.0177 83.779 58.5288 83.779H51.7288C51.2354 83.779 50.7688 83.5845 50.4221 83.2396C50.0754 82.8948 49.8799 82.4261 49.8799 81.9398V75.9493H55.1288L55.1243 75.9449Z" fill="#F7C845"/>
<path d="M62.6711 70.7457C62.2266 72.5053 61.32 74.1146 60.0489 75.4144C58.7778 76.7141 57.1866 77.6602 55.4355 78.1554C51.5111 79.2297 47.2489 75.9493 42 75.9493C36.7511 75.9493 32.4889 79.2297 28.5644 78.1554C26.8133 77.6602 25.2222 76.7141 23.9511 75.4144C22.68 74.1146 21.7778 72.5053 21.3289 70.7457C20.7733 68.6059 20.92 66.3468 21.7422 64.2954C23.1911 60.7099 23.9778 56.9167 23.7689 53.0571C23.4844 47.8491 23.6711 42.1238 23.8933 36.2527C24.2622 26.5971 32.0444 18.5817 41.7511 18.5021C41.84 18.5021 41.9155 18.511 42 18.511C42.0844 18.511 42.16 18.5021 42.2489 18.5021C51.9555 18.5817 59.7378 26.5971 60.1066 36.2527C60.3289 42.1238 60.5155 47.8491 60.2311 53.0571C60.0222 56.9167 60.8089 60.7099 62.2578 64.2954C63.08 66.3468 63.2266 68.6059 62.6711 70.7457Z" fill="#F0C034"/>
<path d="M33.2178 58.7956L27.929 52.2259C27.5645 51.7705 27.1112 51.3992 26.5912 51.1339C26.0712 50.8686 25.5023 50.7139 24.9201 50.683C24.3378 50.652 23.7556 50.7404 23.209 50.9482C22.6667 51.156 22.169 51.4743 21.7601 51.8855C21.1778 52.4602 20.729 53.1543 20.4356 53.9147C20.1467 54.6752 20.0178 55.4886 20.0623 56.2977C20.1067 57.1112 20.3245 57.907 20.7023 58.632C21.0756 59.3526 21.6001 59.9937 22.2401 60.5021L27.3867 64.596C28.1867 65.2238 29.1867 65.5421 30.2045 65.4846C31.2178 65.4227 32.1778 64.9983 32.8978 64.2821C33.6178 63.5659 34.049 62.611 34.1067 61.5985C34.1645 60.5905 33.849 59.5914 33.2178 58.7956Z" fill="#F6CB49"/>
<path d="M55.7688 24.9878C58.4222 28.1621 59.9466 32.1234 60.1066 36.2527C60.2088 38.9893 60.2977 41.6861 60.3422 44.3255C58.5244 47.5794 55.8666 50.2895 52.64 52.1773C49.4177 54.0651 45.7422 55.0598 42 55.0598C38.2577 55.0598 34.5822 54.0651 31.36 52.1773C28.1333 50.2895 25.4755 47.5794 23.6577 44.3255C23.7022 41.6861 23.7911 38.9893 23.8933 36.2527C24.0533 32.1234 25.5777 28.1621 28.2311 24.9878C26.7777 23.6394 25.12 21.5924 23.2933 18.4447C17.9688 9.27539 18.2088 2.92676 18.5022 0.791393C18.5155 0.69413 18.5511 0.596866 18.6088 0.512866C18.6666 0.428866 18.7422 0.35813 18.8266 0.309498C18.9155 0.260866 19.0133 0.229919 19.1155 0.225498C19.2177 0.216656 19.32 0.23434 19.4133 0.27413C21.4266 1.10529 27.1022 4.11602 32.3866 13.2234C33.9244 15.8672 34.8311 18.0202 35.3511 19.7887C37.3866 18.9619 39.56 18.5242 41.7555 18.5065C41.84 18.5021 41.9155 18.511 42 18.511C42.0844 18.511 42.16 18.5021 42.2488 18.5021C44.4444 18.5242 46.6177 18.9619 48.6488 19.7887C49.1688 18.0202 50.0755 15.8672 51.6133 13.2234C56.8977 4.11602 62.5733 1.10529 64.5866 0.27413C64.68 0.23434 64.7822 0.216656 64.8844 0.225498C64.9866 0.225498 65.0844 0.260866 65.1733 0.309498C65.2577 0.35813 65.3333 0.428866 65.3911 0.512866C65.4488 0.596866 65.4844 0.69413 65.4977 0.791393C65.7911 2.92676 66.0311 9.27539 60.7066 18.4447C58.88 21.5924 57.2222 23.6394 55.7688 24.9878Z" fill="#F7CB49"/>
<path d="M20.9024 13.7186C18.098 7.37884 18.2624 2.52895 18.5024 0.791472C18.5157 0.689788 18.5513 0.596946 18.6091 0.512946C18.6668 0.428946 18.7424 0.358209 18.8268 0.309578C18.9157 0.260946 19.0135 0.229999 19.1157 0.225578C19.2179 0.221157 19.3202 0.238841 19.4135 0.27863C21.0268 0.941788 25.1113 3.00642 29.2535 8.52832C25.9024 9.12958 22.9113 10.9908 20.9024 13.7231V13.7186Z" fill="#373F3F"/>
<path d="M43.5111 18.5773C43.0934 18.5419 42.6756 18.5066 42.2489 18.5021C42.2089 18.5021 42.1689 18.5021 42.1289 18.5066C42.5956 18.5066 43.0534 18.5508 43.5111 18.5773Z" fill="#ECCD50"/>
<path fill-rule="evenodd" clip-rule="evenodd" d="M41.6533 39.3916C41.7644 39.3916 41.88 39.3916 42 39.3916C42.12 39.3916 42.2311 39.3916 42.3466 39.3916C43.6311 39.3827 44.6266 39.3739 44.6266 40.7002C44.6266 42.0265 43.6355 42.0177 42.3511 42.0088C42.2355 42.0088 42.12 42.0088 42 42.0088C41.88 42.0088 41.7688 42.0088 41.6533 42.0088C40.3688 42.0177 39.3733 42.0265 39.3733 40.7002C39.3733 39.3739 40.3688 39.3827 41.6533 39.3916Z" fill="#373F3F"/>
<path d="M28.8754 43.2202C28.8754 45.3821 28.4221 47.1373 26.2488 47.1373C25.2043 47.1373 24.2043 46.7261 23.4665 45.9922C22.7288 45.2583 22.3154 44.2592 22.3154 43.2246C22.3154 42.1901 22.7288 41.191 23.4665 40.4571C24.2043 39.7232 25.2043 39.312 26.2488 39.312C28.4221 39.312 28.8754 41.0627 28.8754 43.2291V43.2202Z" fill="#FF8D6E"/>
<path d="M55.1245 43.2202C55.1245 45.3821 55.5778 47.1373 57.7512 47.1373C58.7956 47.1373 59.7956 46.7261 60.5334 45.9922C61.2712 45.2583 61.689 44.2592 61.689 43.2246C61.689 42.1901 61.2756 41.191 60.5334 40.4571C59.7956 39.7232 58.7956 39.312 57.7512 39.312C55.5778 39.312 55.1245 41.0627 55.1245 43.2291V43.2202Z" fill="#FF805D"/>
<path d="M62.2398 51.8855C61.8265 51.4743 61.3332 51.156 60.7865 50.9482C60.2399 50.7404 59.6576 50.652 59.0754 50.683C58.4932 50.7139 57.9243 50.8686 57.4043 51.1339C56.8843 51.3992 56.431 51.7705 56.0665 52.2259L50.7776 58.8C50.1465 59.5914 49.8265 60.5905 49.8887 61.603C49.9465 62.6154 50.3776 63.5659 51.0976 64.2821C51.8176 64.9983 52.7776 65.4272 53.791 65.4846C54.8043 65.5421 55.8087 65.2282 56.6087 64.6004L61.7554 60.5021C62.3954 59.9937 62.9199 59.3571 63.2932 58.632C63.6665 57.907 63.8843 57.1156 63.9287 56.3021C63.9732 55.4886 63.8487 54.6752 63.5554 53.9147C63.2621 53.1543 62.8132 52.4646 62.2354 51.8899L62.2398 51.8855Z" fill="#F6CB49"/>
<path d="M32.8133 39.3872C34.9866 39.3872 36.751 37.632 36.751 35.4702C36.751 33.3083 34.9866 31.5531 32.8133 31.5531C30.6399 31.5531 28.8755 33.3083 28.8755 35.4702C28.8755 37.632 30.6399 39.3872 32.8133 39.3872Z" fill="#96643B"/>
<path d="M32.8132 31.5575C32.0621 31.5575 31.3687 31.7785 30.7732 32.1411C30.391 32.7512 30.191 33.4541 30.1865 34.1703C30.1865 35.2093 30.5999 36.204 31.3376 36.9379C32.0754 37.6718 33.0754 38.083 34.1199 38.083C34.871 38.083 35.5643 37.8619 36.1599 37.4994C36.5243 36.907 36.7465 36.2173 36.7465 35.4701C36.7465 34.4312 36.3332 33.4364 35.5954 32.7025C34.8576 31.9687 33.8576 31.5575 32.8132 31.5575Z" fill="#373F3F"/>
<path d="M34.1243 35.4701C34.8488 35.4701 35.4355 34.8865 35.4355 34.1659C35.4355 33.4453 34.8488 32.8617 34.1243 32.8617C33.3999 32.8617 32.8132 33.4453 32.8132 34.1659C32.8132 34.8865 33.3999 35.4701 34.1243 35.4701Z" fill="white"/>
<path d="M51.1866 39.3872C53.3599 39.3872 55.1243 37.632 55.1243 35.4702C55.1243 33.3083 53.3599 31.5531 51.1866 31.5531C49.0132 31.5531 47.2488 33.3083 47.2488 35.4702C47.2488 37.632 49.0132 39.3872 51.1866 39.3872Z" fill="#8D5B36"/>
<path d="M51.1866 31.5575C51.9377 31.5575 52.631 31.7785 53.2266 32.1411C53.591 32.7335 53.8132 33.4232 53.8132 34.1703C53.8132 35.2093 53.3999 36.204 52.6577 36.9379C51.9199 37.6718 50.9154 38.083 49.8754 38.083C49.1243 38.083 48.431 37.8619 47.8354 37.4994C47.4532 36.8893 47.2532 36.1863 47.2488 35.4701C47.2488 34.4312 47.6621 33.4364 48.4043 32.7025C49.1421 31.9687 50.1466 31.5575 51.1866 31.5575Z" fill="#2B3332"/>
<path d="M49.8756 35.4701C50.6 35.4701 51.1867 34.8865 51.1867 34.1659C51.1867 33.4453 50.6 32.8617 49.8756 32.8617C49.1511 32.8617 48.5645 33.4453 48.5645 34.1659C48.5645 34.8865 49.1511 35.4701 49.8756 35.4701Z" fill="#F7F7F7"/>
<path d="M63.0977 13.7186C65.9021 7.37878 65.7377 2.52889 65.4977 0.791411C65.4844 0.689727 65.4488 0.596885 65.391 0.512885C65.3333 0.428885 65.2577 0.358148 65.1732 0.309517C65.0844 0.260885 64.9866 0.229938 64.8844 0.225517C64.7821 0.221096 64.6799 0.23878 64.5866 0.278569C62.9733 0.941727 58.8888 3.00636 54.7466 8.52825C58.0977 9.12952 61.0888 10.9908 63.0977 13.723V13.7186Z" fill="#2B3332"/>
</g>
</g>
<defs>
<clipPath id="clip0_8_45146">
<rect width="84" height="84" fill="white"/>
</clipPath>
</defs>
</svg>
